<?xml version="1.0" encoding="UTF-8" standalone="no"?><!DOCTYPE svg PUBLIC "-//W3C//DTD SVG 1.1//EN" "http://www.w3.org/Graphics/SVG/1.1/DTD/svg11.dtd"><svg width="100%" height="100%" viewBox="0 0 490 489" version="1.1" xmlns="http://www.w3.org/2000/svg" xmlns:xlink="http://www.w3.org/1999/xlink" xml:space="preserve" xmlns:serif="http://www.serif.com/" style="fill-rule:evenodd;clip-rule:evenodd;stroke-linejoin:round;stroke-miterlimit:2;"><path d="M0.033,91.166c0.01,-19.667 0.021,-39.333 0.031,-59c0.013,-30.721 -0.359,-31.861 1.768,-32.067c1.622,-0.157 485.663,-0.102 486.029,-0.007c1.919,0.497 1.294,2.198 1.242,56.074c-0.351,361.61 0.268,361.564 0.077,393.003c-0.224,36.944 0.909,38.803 -2.34,38.993c-2.044,0.119 -352.36,0.059 -383,0.054c-102.207,-0.018 -102.548,0.218 -103.377,-0.776c-0.431,-0.517 -0.485,-78.31 -0.457,-165.919c0.03,-92.007 0.153,-194.84 0.027,-230.355Z" style="fill:#fd7696;"/><path d="M215.925,314.027c-4.047,0.109 -3.782,1.988 -50.056,7.43c-21.289,2.504 -42.137,0.976 -56.249,-24.174c-10.037,-17.887 0.839,-26.286 2.597,-27.643c16.724,-12.914 32.545,-12.043 36.136,-39.527c3.386,-25.91 12.717,-26.41 8.28,-28.653c-13.486,-6.816 -33.031,-13.42 -45.415,-52.41c-2.675,-8.422 -7.472,-40.585 -1.323,-42.745c7.193,-2.527 75.982,15.266 85.58,54.92c1.099,4.542 -17.366,13.907 -13.533,15.646c2.765,1.255 33.761,-34.171 96.802,-14.388c2.906,0.912 6.378,3.348 7.804,0.52c0.305,-0.604 9.313,-30.736 54.46,-49.408c15.828,-6.546 47.986,-13.274 51.403,-6.214c4.59,9.484 -9.217,90.966 -62.531,104.938c-3.927,1.029 -9.198,0.498 -9,2.847c2.505,29.689 0.967,29.662 -3.56,59.061c-0.132,0.856 -14.271,59.646 25.108,115.233c16.312,23.026 37.15,22.998 28.335,33.642c-3.271,3.95 -25.523,15.648 -37.986,19.875c-1.422,0.482 -66.391,27.222 -147.845,-1.086c-24.05,-8.358 -6.407,-17.329 2.14,-52.672c4.648,-19.22 8.376,-64.745 12.965,-66.595c4.225,-1.703 4.532,-0.898 15.507,-6.773c0.087,-0.064 1.085,-0.804 1.085,-0.804c-0.054,-0.41 -0.651,-0.61 -0.705,-1.02Z" style="fill:#fdfdfd;"/></svg>