<?xml version="1.0" encoding="UTF-8" standalone="no"?><!DOCTYPE svg PUBLIC "-//W3C//DTD SVG 1.1//EN" "http://www.w3.org/Graphics/SVG/1.1/DTD/svg11.dtd"><svg width="100%" height="100%" viewBox="0 0 489 489" version="1.1" xmlns="http://www.w3.org/2000/svg" xmlns:xlink="http://www.w3.org/1999/xlink" xml:space="preserve" xmlns:serif="http://www.serif.com/" style="fill-rule:evenodd;clip-rule:evenodd;stroke-linejoin:round;stroke-miterlimit:2;"><path d="M488.271,297.271c0.003,15.122 0.035,188.843 0.028,189.02c-0.11,2.562 -1.586,1.914 -40.236,1.949c-35.752,0.033 -445.635,0.408 -446.906,-0.176c-1.518,-0.698 -0.784,-1.341 -1.017,-54.794c-0.038,-8.758 0.021,-372.977 -0.048,-385.999c-0.019,-3.6 -0.2,-37.808 0.006,-44.998c0.074,-2.6 1.585,-2.137 45.966,-2.169c35.279,-0.025 439.255,-0.316 440.991,0.194c2.206,0.647 1.065,1.83 1.27,80.97c0.28,108.056 -0.365,107.975 -0.052,216.002Z" style="fill:#67c0fc;"/><path d="M337.921,77.401c9.544,12.142 9.613,11.994 18.588,24.562c0.416,0.583 5.14,7.198 7.362,5.097c3.214,-3.037 8.447,-25.338 -0.219,-46.633c-2.451,-6.022 -11.65,-23.119 -3.49,-20.464c9.931,3.232 38.714,34.291 18.358,80.511c-0.265,0.601 -5.415,12.294 6.244,5.324c28.947,-17.306 21.834,-57.305 30.896,-50.059c4.201,3.359 8.699,42.729 -21.236,65.992c-31.748,24.673 -78.235,43.927 -91.166,68.635c-2.724,5.206 24.182,8.038 34.481,37.013c14.464,40.693 68.716,20.97 48.12,65.799c-4.327,9.417 -9.337,7.398 -9.286,10.088c0.002,0.1 2.481,4.769 -5.838,10.538c-5.346,3.708 -5.907,2.84 -44.669,2.889c-41.518,0.052 -57.273,-1.921 -67.917,-8.917c-0.16,-0.105 -9.281,-5.77 -2.32,0.588c16.353,14.936 34.005,18.938 37.295,19.684c5.489,1.244 5.983,0.546 6.944,2.222c0.951,1.658 14.444,53.432 15.657,58.09c5.734,22.004 8.563,28.271 4.107,30.434c-7.287,3.538 -39.058,15.345 -78.773,16.127c-48.056,0.947 -84.602,-8.629 -99.988,-12.67c-22.232,-5.838 -20.933,-9.389 -20.164,-11.06c3.206,-6.972 41.03,-26.905 43.575,-43.855c3.101,-20.652 17.126,-77.823 31.946,-115.92c0.021,-0.054 2.44,-3.965 -0.179,-4.631c-19.553,-4.975 -32.028,-8.536 -50.698,-33.889c-0.396,-0.537 -27.358,-43.762 -10.459,-45.391c10.366,-0.999 46.975,2.969 74.557,26.216c8.682,7.317 9.176,9.425 12.463,6.606c4.325,-3.71 1.754,-4.748 -2.511,-8.578c-66.221,-59.473 -131.904,-50.683 -141.768,-113.433c-2.304,-14.66 1.457,-29.25 6.074,-20.966c1.453,2.607 5.027,36.64 30.391,50.489c11.016,6.015 4.668,-6.761 4.363,-7.375c-1.79,-3.603 -8.683,-13.498 -9.954,-32.166c-2.501,-36.748 29.44,-57.753 25.013,-44.124c-0.437,1.347 -13.091,31.435 -6.201,52.956c1.388,4.335 4.902,14.467 9.141,7.86c2.562,-3.993 28.852,-49.103 28.508,-31.716c-0.35,17.682 -33.299,47 -1.75,76.606c0.555,0.521 16.184,13.168 15.639,7.392c-0.785,-8.32 -2.924,-19.232 3.439,-32.8c4.564,-9.731 19.292,-18.964 17.091,-8.298c-3.693,17.896 -15.695,45.981 14.696,63.683c5.554,3.235 1.293,-7.517 8.246,-16.182c2.725,-3.397 8.82,-4.574 9.857,3.552c0.09,0.706 0.308,14.122 7.065,24.793c2.719,4.294 13.028,13.915 15.616,13.89c2.117,-0.02 2.112,-0.295 11.992,-0.277c9.34,0.017 14.455,1.899 15.563,-0.577c8.609,-19.237 4.312,-46.686 14.536,-40.928c4.994,2.812 3.591,18.61 7.605,11.928c11.727,-19.525 -2.71,-49.944 -4.564,-53.85c-8.537,-17.987 8.481,-5.728 11.43,-2.518c18.436,20.069 9.152,43.911 14.491,41.783c3.113,-1.241 22.905,-14.103 21.753,-36.19c-1.251,-23.972 -22.407,-40.796 -20.046,-52.063c0.21,-1.003 1.201,-1.878 2.232,-1.858c1.563,0.031 7.287,5.493 7.861,6.04Z" style="fill:#fdfdfd;"/><path d="M335.991,199.143c12.987,-7.606 28.429,-11.023 37.041,-10.462c11.622,0.758 -0.426,35.196 -23.224,54.257c-3.146,2.631 -4.437,4.264 -6.13,0.531c-9.119,-20.101 -22.798,-25.675 -27.234,-29.464c-2.788,-2.381 17.832,-13.904 19.547,-14.862Z" style="fill:#fdfdfd;"/></svg>