<?xml version="1.0" encoding="UTF-8" standalone="no"?><!DOCTYPE svg PUBLIC "-//W3C//DTD SVG 1.1//EN" "http://www.w3.org/Graphics/SVG/1.1/DTD/svg11.dtd"><svg width="100%" height="100%" viewBox="0 0 488 488" version="1.1" xmlns="http://www.w3.org/2000/svg" xmlns:xlink="http://www.w3.org/1999/xlink" xml:space="preserve" xmlns:serif="http://www.serif.com/" style="fill-rule:evenodd;clip-rule:evenodd;stroke-linejoin:round;stroke-miterlimit:2;"><path d="M0.023,38.31c0.035,-33.166 -0.044,-33.146 0.024,-36.028c0.048,-2.064 1.61,-2.031 2.383,-2.06c9.386,-0.357 351.444,-0.181 382.004,-0.165c101.891,0.052 102.589,-0.055 103.028,1.242c0.87,2.569 0.176,334.891 0.115,364.012c-0.129,61.827 0.241,119.939 -0.278,120.931c-0.61,1.167 -1.156,0.855 -330.866,0.896c-155.336,0.019 -155.573,-0.16 -156.082,-0.776c-0.675,-0.818 -0.133,-339.027 -0.329,-448.051Z" style="fill:#fdcb3d;"/><path d="M247.379,356.367c-2.129,-1.81 -18.629,-15.838 -28.145,-20.676c-4.464,-2.27 -17.49,-6.855 -31.433,-25.656c-17.426,-23.497 -20.366,-37.862 -20.678,-38.576c-5.397,-12.333 -43.534,-38.645 -51.963,-43.702c-57.803,-34.675 -89.841,-39.375 -93.455,-41.86c-0.879,-0.605 -0.935,-7.897 -0.94,-8.588c-0.621,-81.887 -0.563,-81.878 -0.634,-88.998c-0.35,-35.014 -1.621,-37.181 1.289,-36.751c39.015,5.762 88.462,39.708 116.726,56.222c14.962,8.742 18.006,7.093 17.927,13.522c-0.465,37.85 25.94,75.416 28.112,73.706c1.328,-1.046 0.068,-1.298 -4.443,-7.86c-15.955,-23.207 -18.368,-61.878 -15.438,-68.902c4.253,-10.197 48.025,5.908 65.685,25.483c19.396,21.499 15.741,47.207 15.777,47.491c0.486,3.838 3.291,-0.508 2.291,-11.902c-3.842,-43.815 -31.224,-48.185 -32.814,-54.962c-4.619,-19.697 -2.82,-41.156 12.818,-63.305c10.65,-15.085 17.836,-21.897 27.96,-8.419c30.039,39.989 31.182,69.285 21.17,101.601c-1.959,6.325 -4.314,7.469 0.836,11.568c46.766,37.224 44.766,61.034 43.998,75.483c-1.817,34.184 -11.12,33.772 -5.851,74.063c4.123,31.527 15.517,30.811 9.822,42.757c-4.199,8.809 -48.348,34.739 -63.169,14.892c-1.087,-1.455 -6.341,-8.492 -15.449,-16.631Z" style="fill:#fdfdfc;"/><path d="M442.05,334.094c-0.281,0.232 -34.069,10.188 -64.101,51.87c-24.337,33.778 -29.39,63.2 -31.673,63.923c-0.623,0.197 -37.323,0.558 -38.145,-0.222c-1.766,-1.673 5.697,-65.47 45.738,-107.949c26.054,-27.64 48.314,-34.749 68.593,-40.58c15.912,-4.576 -4.14,2.181 -17.712,11.625c-46.74,32.523 -63.698,83.187 -73.153,114.562c-6.06,20.107 4.272,-5.601 4.5,-6.167c12.154,-30.24 43.744,-71.191 88.372,-83.72c15.455,-4.339 15.65,-4.524 17.583,-3.343Z" style="fill:#fdfdfd;"/><path d="M285.579,434.072c0.888,-0.73 0.858,-0.643 0.888,-0.73c3.195,-9.133 -1.504,-20.556 22.924,-49.125c5.354,-6.262 -0.234,2.341 -2.553,10.214c-8.65,29.366 -7.352,44.683 -7.618,53.862c-0.048,1.658 -0.861,1.924 -23.784,1.77c-5.509,-0.037 -5.444,-1.25 -6.568,-5.858c-1.835,-7.521 -14.137,-57.948 -51.777,-81.752c-3.044,-1.925 0.133,-1.816 0.266,-1.764c55.91,21.769 67.55,72.381 68.222,73.382Z" style="fill:#fdfdfc;"/><path d="M422.324,379.184c-41.414,37.319 -40.227,70.695 -45.915,70.844c-17.316,0.454 -18.157,-0.3 -17.834,-1.696c1.213,-5.239 12.515,-42.7 45.121,-66.658c2.987,-2.195 19.013,-13.971 41.771,-20.048c0.227,-0.061 12.878,-3.439 2.678,1.21c-13.984,6.374 -13.809,6.672 -25.821,16.348Z" style="fill:#fdfdfc;"/><path d="M210.443,396.655c0.097,0.048 29.793,10.762 44.611,39.857c5.622,11.039 5.44,13.463 3.357,13.478c-10.975,0.082 -13.577,0.329 -14.28,-1.545c-1.628,-4.338 -5.1,-17.776 -18.197,-34.75c-0.539,-0.698 -7.815,-9.562 -10.976,-11.986c-4.002,-3.07 -5.569,-2.682 -4.516,-5.055Z" style="fill:#fdfdfc;"/><path d="M415.539,416.321c-3.421,4.6 -9.676,10.199 -15.826,30.086c-1.11,3.591 -2.06,3.959 -11.241,3.665c-3.042,-0.097 2.481,-14.848 15.318,-26.353c2.693,-2.414 9.956,-8.316 10.647,-8.367c0.488,-0.036 0.614,1.004 1.102,0.968Z" style="fill:#fdfdfb;"/></svg>