<?xml version="1.0" encoding="UTF-8" standalone="no"?><!DOCTYPE svg PUBLIC "-//W3C//DTD SVG 1.1//EN" "http://www.w3.org/Graphics/SVG/1.1/DTD/svg11.dtd"><svg width="100%" height="100%" viewBox="0 0 489 488" version="1.1" xmlns="http://www.w3.org/2000/svg" xmlns:xlink="http://www.w3.org/1999/xlink" xml:space="preserve" xmlns:serif="http://www.serif.com/" style="fill-rule:evenodd;clip-rule:evenodd;stroke-linejoin:round;stroke-miterlimit:2;"><path d="M488.462,40.223c-0.181,445.152 0.554,445.838 -0.837,446.594c-2.099,1.14 -253.697,0.371 -275.757,0.303c-120.393,-0.368 -209.855,0.667 -211.193,-0.718c-1.199,-1.241 -0.385,-194.318 -0.614,-369.177c-0.012,-9.273 -0.151,-115.018 0.097,-115.912c0.406,-1.462 1.242,-1.177 123.709,-1.242c29.041,-0.016 359.199,-0.192 363.015,0.077c1.823,0.128 1.564,1.185 1.58,40.075Z" style="fill:#92cc5c;"/><path d="M189.926,325.839c102.683,14.973 159.002,-10.513 164.254,-22.478c1.405,-3.2 0.869,-4.184 2.666,-3.881c35.947,6.06 158.155,41.52 29.124,78.105c-105.767,29.989 -308.685,14.543 -335.713,-28.587c-17.71,-28.26 85.327,-51.813 86.713,-48.836c2.035,4.372 -0.14,12.126 38.975,22.781c5.696,1.552 5.649,1.28 13.981,2.896Z" style="fill:#fdfdfd;"/><path d="M202.786,259.307c-31.018,-32.614 -28.599,-52.652 -26.176,-62.115c0.973,-3.803 -3.901,1.39 -6.732,0.947c-41.112,-6.438 -54.695,-61.244 -50.168,-75.975c2.088,-6.795 25.907,1.668 34.296,5.782c35.857,17.583 38.202,34.366 40.98,32.59c5.177,-3.31 34.948,-22.347 75.939,-11.526c23.22,6.13 25.049,14.667 28.32,9.447c13.278,-21.191 51.931,-39.346 68.621,-39.027c9.884,0.189 3.523,35.137 -9.387,53.529c-14.733,20.989 -34.815,27.334 -40.36,23.778c-5.392,-3.457 -1.629,3.067 -1.563,7.501c0.55,36.821 -47.168,77.526 -68.772,81.507c-6.985,1.287 -27.179,-8.865 -44.996,-26.437Z" style="fill:#fdfdfd;"/><path d="M187.81,319.57c-3.889,-0.832 -44.132,-9.447 -45.78,-19.373c-4.634,-27.916 31.118,-62.05 36.92,-59.074c0.306,0.157 4.952,7.737 4.988,8.092c0.33,3.296 -28.872,12.303 -33.68,48.069c-0.959,7.133 32.812,15.031 41.604,16.161c2.187,0.281 4.499,-6.837 7.212,-19.175c2.387,-10.856 1,-11.022 3.185,-21.873c0.064,-0.319 0.495,-1.064 3.656,1.775c36.721,32.978 49.951,22.269 64.219,12.434c15.447,-10.647 18.69,-17.36 19.255,-12.291c0.351,3.152 3.596,32.298 8.818,38.65c1.685,2.05 30.668,-5.194 41.367,-12.196c1.303,-0.853 5.007,-3.277 -2.137,-19.347c-8.936,-20.1 -29.184,-31.221 -29.301,-31.384c-0.78,-1.094 4.369,-9.259 4.86,-9.581c1.847,-1.21 37.645,21.843 37.008,58.772c-0.224,12.961 -74.843,35.69 -162.193,20.341Z" style="fill:#fdfdfd;"/><path d="M237.87,399.851c90.923,0.334 100.571,-9.751 99.865,-4.652c-0.782,5.642 -63.234,43.584 -140.829,21.901c-26.862,-7.506 -48.222,-23.634 -41.11,-23.245c7.26,0.398 28.862,4.795 82.075,5.996Z" style="fill:#fdfdfd;"/><path d="M291.79,119.158c4.539,-6.471 4.675,-6.307 8.619,-13.182c2.954,-5.149 -3.844,-7.601 -1.757,-15.801c5.266,-20.687 35.177,-8.694 27.01,8.963c-3.707,8.015 -12.759,8.766 -12.907,8.808c-1.923,0.548 -17.602,36.01 -20.092,43.205c-1.308,3.78 -3.06,1.473 -4.99,0.453c-9.743,-5.152 -19.374,-5.371 -17.325,-8.046c13.593,-17.747 -5.743,-30.737 1.91,-36.856c10.136,-8.104 8.147,23.229 19.532,12.456Z" style="fill:#fdfdfd;"/><path d="M204.041,151.595c-3.257,1.264 -3.983,2.867 -4.942,0.527c-1.47,-3.586 -17.566,-42.838 -20.135,-44.066c-0.604,-0.289 -12.459,-1.469 -14.272,-12.803c-3.148,-19.691 29.614,-21.687 28.409,-1.014c-0.378,6.485 -4.385,7.614 -2.449,11.102c10.953,19.729 14.65,16.838 15.768,15.469c3.913,-4.795 7.018,-20.317 13.272,-13.427c5,5.509 -9.627,21.147 0.602,35.572c3.286,4.634 -2.154,2.487 -16.251,8.64Z" style="fill:#fdfdfd;"/><path d="M232.93,359.155c-6.804,-9.001 10.295,-12.4 20.858,-9.65c18.437,4.801 -1.958,21.249 -20.858,9.65Z" style="fill:#89c956;"/><path d="M123.836,335.297c18.114,9.469 -25.301,13.942 -24.735,2.945c0.106,-2.057 7.319,-8.785 24.735,-2.945Z" style="fill:#8cc858;"/><path d="M379.868,333.067c16.407,1.474 13.321,6.855 12.531,7.729c-6.539,7.246 -35.602,3.476 -26.347,-4.328c3.126,-2.636 12.68,-3.32 13.815,-3.401Z" style="fill:#8cca58;"/><path d="M181.811,356.832c-19.822,0.563 -15.685,-7.363 -14.66,-8.234c2.376,-2.019 13.587,-4.244 20.408,0.088c0.673,0.428 7.243,5.218 -5.749,8.146Z" style="fill:#87c550;"/><path d="M315.835,356.93c-16.804,-0.344 -12.758,-6.886 -11.928,-7.658c7.867,-7.318 32.826,0.125 18.081,6.247c-1.615,0.671 -5.655,1.33 -6.153,1.411Z" style="fill:#89c856;"/></svg>