<?xml version="1.0" encoding="UTF-8" standalone="no"?><!DOCTYPE svg PUBLIC "-//W3C//DTD SVG 1.1//EN" "http://www.w3.org/Graphics/SVG/1.1/DTD/svg11.dtd"><svg width="100%" height="100%" viewBox="0 0 256 256" version="1.1" xmlns="http://www.w3.org/2000/svg" xmlns:xlink="http://www.w3.org/1999/xlink" xml:space="preserve" xmlns:serif="http://www.serif.com/" style="fill-rule:evenodd;clip-rule:evenodd;stroke-linecap:round;stroke-linejoin:round;stroke-miterlimit:1.5;"><path d="M83.318,66.984l-9.509,52.411l-28.064,3.479l-16.931,12.742l-0.696,19.149l-13.452,7.19l-5.566,42.9l4.639,10.908l40.82,-2.718l58.215,27.766l6.726,0.464l58.911,-33.166l12.06,9.045l16.235,4.081l18.323,-48.346l-26.672,-2.165l-27.832,13.141l-15.076,-27.941l51.258,-1.655l26.604,-32.207l0,-55.432l-85.98,2.551l0.464,56.658l-19.739,-4.705l-11.803,-5.334l-0.928,-20.41l18.323,2.087l7.761,-10.437l-13.352,-14.202l-2.99,-6.672l-14.38,-7.654l-17.627,1.624l-11.597,-7.886l-14.38,-1.855l2.087,7.19l14.148,9.399Z" style="fill:#fff;stroke:#000;stroke-width:0.24px;"/><g id="deer.jpg" serif:id="deer.jpg"><path d="M128.231,217.044l-0.067,0.257c0.027,0.098 0.229,0.066 0.256,0.164c0.041,0.147 -1.498,0.181 -2.864,0.442c-1.95,0.372 -1.951,0.326 -3.913,0.618c-0.877,0.13 -0.833,0.988 -0.871,1.192c-0.063,0.339 -0.421,2.264 -0.906,4.218c-0.708,2.848 -0.479,3.712 -0.995,3.121c-0.165,-0.189 -0.161,-0.19 -0.216,-0.431c-0.379,-1.69 -0.49,-2.344 -1.762,-5.437c-1.149,-2.795 -1.664,-2.598 -1.885,-2.631c-1.295,-0.194 -4.147,-0.182 -4.508,-0.18c-0.63,0.003 -2.789,0.012 -7.842,0.666c-0.385,0.05 -4.344,0.562 -4.815,0.636c-1.006,0.158 -1.544,0.061 -1.469,0.933c0.43,5 0.389,5.003 0.438,5.437c0.194,1.739 0.274,4.417 0.44,4.803c0.196,0.458 1.374,0.786 2.669,1.298c1.311,0.519 6.373,2.522 16.583,5.982c0.601,0.204 0.668,0.175 1.83,-0.339c3.067,-1.355 3.054,-1.372 3.322,-1.485c1.543,-0.65 10.291,-4.81 11.081,-5.245c1.473,-0.812 1.991,-0.85 2.1,-1.422c0.065,-0.34 0.034,-0.343 -0.055,-12.337c-0.017,-2.311 0.532,-2.804 1.029,-8.131c0.098,-1.052 0.202,-1.04 0.387,-4.814c0.13,-2.637 -0.075,-2.636 -0.015,-3.312c0.074,-0.826 2.09,-3.623 2.956,-6.02c1.052,-2.91 1.757,-4.66 1.303,-11.161c-0.147,-2.103 0.186,-2.561 -1.059,-2.898c-1.365,-0.369 -1.356,-0.391 -1.475,-0.418c-0.189,-0.043 -0.38,-0.075 -0.567,-0.125c-0.339,-0.09 -3.574,-0.948 -4.233,-1.146c-3.745,-1.127 -3.91,-0.7 -4.108,-0.973c-0.036,-0.049 0.016,-0.122 0.013,-0.183c-0.003,-0.049 -0.101,-0.203 0.145,-0.293c0.18,-0.065 1.107,-0.074 1.204,-0.075c0.341,-0.003 0.921,-0.009 4.24,-0.443c0.216,-0.028 2.259,-0.296 2.701,-0.368c3.308,-0.544 3.324,-0.587 3.999,-1.086c1.444,-1.069 1.932,-1.686 2.717,-2.765c0.059,-0.081 0.419,-0.577 0.686,-1.042c1.555,-2.716 2.714,-6.075 2.573,-11.669c-0.162,-6.468 -0.929,-8.026 -0.607,-8.407c0.212,-0.251 0.25,-0.199 0.575,-0.201c0.53,-0.003 0.526,0.014 6.622,0.003c10.368,-0.02 41.81,0.003 41.814,0.005c0.032,0.014 0.171,0.323 0.157,0.481c-0.013,0.146 -0.634,1.198 -0.887,1.844c-1.104,2.823 -0.979,2.95 -1.393,3.142c-0.363,0.169 -0.527,0.043 -25.236,0.089c-8.318,0.016 -8.318,-0.045 -9.041,-0.013c-0.435,0.019 -0.5,0.306 -0.511,0.354c-0.011,0.049 -0.018,0.081 0.186,0.606c0.578,1.479 0.621,1.488 1.8,2.733c3.748,3.957 7.461,9.578 9.127,14.404c1.255,3.633 1.21,3.646 1.368,4.856c0.007,0.053 0.075,0.576 0.384,0.543c0.154,-0.017 0.777,-0.341 0.843,-0.376c0.557,-0.29 1.817,-0.946 7.253,-2.988c1.766,-0.663 5.579,-2.284 6.367,-2.598c0.905,-0.361 5.286,-2.425 5.967,-2.819c0.003,-0.002 3.797,-1.952 4.559,-2.63c0.797,-0.709 -0.044,-1.907 0.354,-6.614c0.163,-1.921 1.826,-8.176 2.004,-8.756c0.094,-0.305 0.705,-2.291 1.992,-3.457c0.426,-0.386 1.752,-1.038 2.323,-1.205c3.318,-0.971 3.831,0.457 4.411,-0.19c0.072,-0.08 0.237,-0.542 0.255,-0.59c0.398,-1.109 5.042,-12.201 5.121,-12.361c0.272,-0.549 2.181,-5.426 2.57,-6.246c0.573,-1.207 1.413,-3.401 1.944,-4.591c0.918,-2.059 1.414,-4.053 2.6,-5.3c2.635,-2.77 8.34,-2.582 11.391,-1.998c2.254,0.431 2.452,0.524 4.815,1.261c5.034,1.57 15.184,7.796 13.751,12.688c-0.118,0.402 -0.247,0.842 -2.716,4.483c-5.198,7.663 -11.211,17.989 -11.448,18.376c-0.643,1.055 0.215,0.922 1.248,1.911c0.263,0.251 2.111,2.02 2.372,3.878c0.365,2.597 -1.81,4.497 -2.062,4.769c-0.705,0.764 -0.41,0.987 0.001,3.355c0.544,3.137 -1.956,4.414 -2.619,5.163c-0.489,0.552 -0.217,1.632 -0.328,2.663c-0.37,3.428 -2.173,3.57 -3.137,4.74c-0.487,0.591 -0.297,2.902 -2.013,4.59c-1.212,1.192 -5.854,3.14 -7.51,3.404c-0.615,0.098 -0.616,0.055 -1.231,0.151c-0.735,0.114 -0.533,0.403 -1.391,2.218c-0.45,0.952 -5.037,11.458 -8.289,20.111c-1.356,3.609 -1.344,3.606 -3.192,9.078c-0.69,2.044 -0.652,2.66 -1.262,2.755c-0.357,0.056 -4.397,-0.527 -5.128,-0.684c-3.322,-0.714 -3.33,-0.671 -6.587,-1.635c-5.584,-1.651 -10.638,-4.925 -10.833,-5.056c-0.627,-0.421 -0.61,-0.436 -1.228,-0.862c-2.28,-1.569 -4.91,-3.985 -5.175,-4.118c-0.495,-0.249 -0.502,0.018 -2.661,1.184c-1.342,0.725 -2.251,1.257 -2.729,1.473c-1.48,0.668 -2.379,1.291 -3.028,1.429c-0.777,0.165 -3.903,-1.055 -5.97,-2.408c-2.316,-1.516 -2.323,-1.501 -2.518,-1.642c-0.363,-0.263 -3.355,-2.436 -4.52,-3.313c-6.477,-4.878 -9.377,-7.744 -11.424,-9.991c-0.907,-0.995 -0.838,-1.072 -0.95,-1.105c-0.072,-0.021 -0.146,0.047 -0.221,0.046c-0.056,-0 -0.11,-0.072 -0.162,-0.049c-0.076,0.034 -0.18,0.394 -0.191,0.43c-0.624,2.15 -0.817,2.076 -1.745,4.546c-0.538,1.432 -0.166,4.616 -1.375,12.673c-0.396,2.635 0.479,9.243 0.334,11.758c-0.016,0.27 -0.052,0.327 0.2,0.423c0.157,0.06 0.838,-0.311 0.906,-0.348c0.53,-0.289 3.299,-1.796 6.586,-3.689c1.29,-0.743 6.337,-3.938 6.885,-4.285c0.293,-0.186 2.208,-1.398 3.6,-2.426c0.967,-0.714 1.19,-1.068 1.88,-0.615c0.875,0.574 1.963,1.129 2.33,1.342c2.343,1.364 2.498,1.069 2.645,1.25c0.009,0.011 0.036,0.415 0.028,0.432c-0.033,0.077 -0.482,0.323 -0.526,0.347c-0.294,0.161 -1.619,1.168 -1.758,1.273c-0.457,0.347 -0.574,0.41 -0.885,0.632c-13.558,9.67 -31.74,18.093 -33.505,18.859c-4.44,1.925 -4.408,1.995 -4.794,2.162c-0.798,0.345 -3.169,1.442 -4.566,1.984c-2.088,0.81 -2.124,1.067 -3.266,0.659c-1.915,-0.684 -7.067,-2.346 -8.117,-2.744c-0.391,-0.148 -9.037,-3.28 -9.934,-3.627c-0.363,-0.14 -3.686,-1.423 -4.527,-1.781c-5.78,-2.457 -15.628,-6.297 -26.757,-12.421c-10.912,-6.005 -13.159,-8.581 -13.922,-8.574c-0.312,0.003 -0.309,0.033 -3.546,1.615c-5.456,2.667 -10.338,2.864 -15.734,3.437c-0.553,0.059 -6.649,0.707 -6.909,0.746c-2.644,0.398 -3.833,0.429 -5.114,0.62c-1.203,0.18 -1.204,0.129 -2.413,0.298c-0.266,0.037 -1.89,0.265 -3.339,0.383c-1.166,0.095 -1.231,-0.181 -1.741,-0.849c-1.966,-2.575 -1.848,-2.653 -3.451,-5.025c-1.335,-1.976 -1.535,-2.491 -1.948,-3.115c-0.117,-0.177 -2.45,-3.824 -2.872,-5.041c-0.088,-0.253 -0.184,-0.531 0.074,-3.341c0.358,-3.903 0.464,-3.89 0.494,-4.229c0.221,-2.503 0.281,-2.491 0.297,-2.708c0.207,-2.763 0.575,-4.18 0.6,-7.822c0.034,-4.955 -1.57,-13.296 2.57,-21.963c0.625,-1.308 2.047,-3.791 3.362,-5.684c3.665,-5.274 5.114,-6.129 5.37,-7.278c0.138,-0.62 -0.553,-4.931 -0.005,-9.643c0.066,-0.567 0.427,-3.665 1.849,-6.898c0.918,-2.086 1.667,-3.211 2.201,-4.034c0.457,-0.704 3.013,-4.642 7.274,-7.566c5.439,-3.733 9.132,-4.553 12.458,-5.185c1.977,-0.376 7.473,-0.793 8.711,-0.806c1.537,-0.016 1.546,-0.121 3.635,-1.382c1.462,-0.883 7.393,-3.773 8.042,-4.089c2.848,-1.388 2.889,-1.291 5.762,-2.634c1.645,-0.769 1.778,-0.73 1.947,-1.416c1.235,-5.025 1.251,-5.018 1.342,-5.459c0.53,-2.568 0.856,-3.298 1.203,-4.82c0.585,-2.566 0.656,-2.545 1.257,-5.108c0.328,-1.397 0.74,-2.648 0.98,-3.594c0.711,-2.807 0.743,-2.794 0.803,-3.038c0.827,-3.325 3.244,-11.181 3.546,-12.074c1.623,-4.791 1.481,-4.96 1.901,-5.087c0.138,-0.041 0.161,-0.048 1.792,0.141c4.179,0.484 4.203,0.307 4.543,0.44c0.403,0.157 0.287,1.039 0.286,1.829c-0.024,25.179 -0.002,29.647 0.011,32.225c0.006,1.229 0.065,13.128 0.044,15.36c-0.051,5.272 0.036,5.272 0.009,5.73c-0.002,0.042 -0.02,0.341 -0.289,0.432c-0.328,0.112 -1.445,-0.166 -3.092,-0.373c-2.767,-0.348 -2.758,-0.376 -2.999,-0.4c-2.266,-0.222 -5.447,-0.778 -6.921,-0.946c-6.277,-0.714 -6.265,-0.782 -7.227,-0.902c-0.362,-0.045 -4.047,-0.505 -4.525,-0.553c-1.208,-0.122 -1.203,-0.134 -2.413,-0.267c-3.836,-0.42 -3.809,-0.679 -6.625,-0.75c-1.922,-0.048 -6.569,0.617 -6.643,0.629c-3.66,0.605 -4.977,0.738 -8.317,2.961c-0.218,0.145 -2.435,1.979 -3.277,2.991c-3.346,4.024 -4.107,6.733 -4.584,8.333c-0.234,0.784 -1.403,4.708 -0.353,10.217c0.829,4.347 1.288,5.369 1.578,6.3c0.881,2.837 0.977,2.805 1.036,3.056c0.161,0.68 -0.862,0.606 -2.931,1.189c-0.338,0.095 -3.365,0.949 -4.23,1.149c-0.388,0.09 -4.167,0.963 -4.818,1.227c-1.055,0.427 -3.55,4.519 -3.761,4.927c-1.41,2.72 -2.683,5.555 -2.781,10.465c-0.149,7.457 0.398,8.526 -0.522,11.699c-0.531,1.833 -0.464,1.846 -0.981,3.681c-1.065,3.782 -2.142,9.904 -1.763,11.086c0.099,0.309 0.181,0.566 2.216,3.4c1.068,1.488 1.251,1.993 2.185,2.031c1.816,0.074 1.809,0.104 3.619,0.267c0.736,0.066 0.821,0.348 3.854,-0.97c4.826,-2.098 4.858,-2.008 9.709,-4.052c1.315,-0.554 1.32,-0.53 2.635,-1.078c2.856,-1.191 2.842,-1.221 3.091,-1.322c8.233,-3.342 8.507,-3.638 12.048,-5.112c6.79,-2.827 11.878,-5.294 12.949,-5.73c2.521,-1.025 6.542,-3.264 6.621,-3.293c0.505,-0.181 0.665,0.158 0.295,0.541c-0.24,0.249 -4.374,2.515 -6.379,3.84c-1.379,0.911 -4.014,2.484 -4.804,3.036c-1.126,0.786 -5.157,3.179 -5.621,3.468c-3.415,2.127 -9.635,5.77 -9.75,5.845c-0.194,0.127 -2.968,1.731 -3.819,2.264c-2.547,1.593 -4.811,2.663 -4.817,2.672c-0.029,0.045 -0.033,0.461 -0.009,0.484c0.111,0.105 0.789,-0.072 0.856,-0.089c1.387,-0.361 3.781,-0.528 4.832,-0.658c8.993,-1.109 9.148,-0.759 13.211,-2.854c2.531,-1.306 7.126,-4.325 7.485,-4.571c4.249,-2.913 4.276,-2.873 4.638,-3.136c1.641,-1.196 5.701,-3.97 6.032,-4.201c0.4,-0.279 3.969,-2.769 4.993,-3.501c3.699,-2.642 3.719,-2.605 4.031,-2.847c0.949,-0.736 3.77,-2.704 8.123,-5.727c3.722,-2.585 3.605,-2.746 3.948,-2.939c0.519,-0.292 3.339,-0.031 6.261,-0.393c4.678,-0.58 6.482,-0.499 10.287,-2.33c2.858,-1.375 4.181,-2.2 4.53,-2.418c1.588,-0.99 1.685,-0.78 3.549,-0.79c0.954,-0.005 1.452,-0.945 1.525,-1.115c0.723,-1.687 -0.665,-3.562 -0.866,-4.536c-0.321,-1.557 2.238,-2.746 0.624,-4.864c-1.159,-1.52 -1.678,-1.759 -1.562,-2.349c0.077,-0.39 1.61,-1.787 1.827,-2.705c0.06,-0.255 0.527,-0.718 -2.241,-2.584c-3.175,-2.14 -2.612,-2.749 -2.352,-2.895c0.054,-0.03 3.998,-1.366 4.532,-1.524c1.564,-0.464 6.069,-2.123 6.657,-2.309c3.844,-1.219 4.48,-1.583 6.579,-2.252c0.486,-0.155 3.77,-1.201 6.058,-2.002c2.098,-0.734 1.182,-2.551 0.843,-2.955c-0.613,-0.731 -2.231,0.056 -4.458,0.537c-1.635,0.353 -4.833,1.226 -5.098,1.291c-3.194,0.785 -3.19,0.772 -6.37,1.629c-10.185,2.745 -10.208,2.654 -11.087,2.915c-2.271,0.676 -3.113,0.81 -8.459,2.32c-1.372,0.387 -2.592,0.523 -3.286,0.707c-1.034,0.275 -1.187,0.158 -2.1,1.124c-0.905,0.958 -9.036,11.052 -10.675,12.509c-1.148,1.021 -5.233,2.344 -7.094,3.204c-2.84,1.313 -17.613,6.837 -19.582,7.54c-4.382,1.564 -5.186,2.033 -7.568,2.257c-2.643,0.249 -2.627,0.334 -3.902,0.442c-0.458,0.039 -3.764,0.319 -5.711,0.626c-4.399,0.694 -5.783,0.834 -6.943,1.106c-4.059,0.952 -6.309,1.588 -10.214,3.95c-3.316,2.006 -4.575,3.443 -4.856,3.505c-0.12,0.027 -0.422,-0.235 -0.257,-0.528c0.108,-0.192 0.267,-0.35 0.404,-0.522c2.316,-2.908 2.311,-2.907 2.528,-3.146c2.169,-2.377 3.451,-3.151 4.914,-4.093c4.687,-3.018 15.22,-3.656 18.627,-3.945c2.08,-0.176 2.092,-0.139 2.432,-0.305c0.543,-0.266 1.956,-2.446 2.423,-3.341c3.988,-7.642 1.642,-13.533 1.123,-14.141c-0.684,-0.8 -3.495,-1.968 -3.9,-2.088c-0.476,-0.141 -0.644,-0.092 -0.928,-0.32c-0.045,-0.036 -0.142,-0.038 -0.142,-0.095c-0.005,-0.397 0.738,-0.475 0.814,-0.483c1.186,-0.125 6.826,-1.698 7.23,-1.793c0.83,-0.195 3.06,-0.916 3.283,-0.868c0.406,0.087 0.38,0.147 0.655,0.453c1.57,1.742 1.545,1.758 3.19,3.431c1.014,1.031 4.346,4.61 4.825,5.11c5.345,5.589 5.553,6.231 6.088,6.159c0.152,-0.02 3.093,-1.207 3.36,-1.315c4.629,-1.868 4.66,-1.788 5.062,-1.952c2.315,-0.944 2.246,-1.112 3.868,-3.017c5.359,-6.298 5.291,-6.352 5.762,-6.895c0.46,-0.53 3.079,-3.699 3.158,-3.787c1.42,-1.576 1.741,-1.349 5.903,-2.217c0.39,-0.081 0.384,-0.086 6.034,-1.461c2.485,-0.605 2.46,-0.681 3.323,-0.854c1.172,-0.236 5.077,-1.337 6.013,-1.556c2.754,-0.644 2.736,-0.707 2.975,-0.762c4.193,-0.962 4.168,-1.06 4.533,-1.139c3.798,-0.822 3.762,-0.953 5.747,-1.399c2.153,-0.484 5.437,-1.345 6.321,-1.503c1.922,-0.342 3.174,-0.602 4.764,1.188c0.495,0.557 0.836,3.898 0.59,4.454c-0.54,1.22 -0.917,1.686 -2.301,2.524c-0.64,0.388 -8.4,3.088 -15.997,5.977c-2.803,1.066 -2.822,1.01 -3.062,1.111c-0.434,0.184 -0.19,0.532 -0.162,0.571c0.016,0.022 1.189,0.736 1.716,1.272c2.446,2.489 0.654,5.016 0.374,5.484c-0.529,0.884 -0.273,1.137 0.164,2.082c1.375,2.968 -0.478,4.502 -0.707,5.428c-0.235,0.95 1.567,3.08 -0.486,6.27c-2.786,4.331 -6.578,4.001 -7.49,4.014c-1.082,0.015 -1.416,0.662 -3.003,1.449c-6.531,3.238 -12.191,3.162 -15.07,3.12c-2.02,-0.029 -2.115,-0.216 -2.804,0.363c-4.926,4.137 -5.77,4.498 -7.543,6.017c-0.647,0.555 -0.427,0.831 0.945,2.006c3.804,3.255 6.734,5.698 9.074,6.617c1.376,0.541 5.692,0.778 8.47,0.288c4.221,-0.745 6.69,-1.562 7.257,-1.75c0.257,-0.085 4.411,-0.779 4.992,-7.953c0.159,-1.959 0.173,-1.956 0.041,-3.916c-0.056,-0.835 0.512,-0.477 0.516,-0.472c0.09,0.13 0.131,0.288 0.193,0.434c0.031,0.073 0.049,0.152 0.084,0.223c0.587,1.166 0.641,1.132 1.218,2.307c1.718,3.501 1.122,7.066 1.12,7.156c-0.001,0.051 -0.009,0.386 0.241,0.587c0.263,0.211 3.287,1.09 5.365,1.931c4.374,1.771 4.418,1.652 4.795,1.815c0.405,0.175 0.319,0.419 0.305,0.461c-0.094,0.266 -0.497,0.22 -0.543,0.214c-2.402,-0.278 -2.399,-0.28 -4.817,-0.395c-2.698,-0.128 -5.145,-0.401 -5.416,-0.401c-0.524,0.001 -0.54,0.544 -0.542,0.609c-0.062,2.118 -0.078,7.754 -0.08,8.428c-0.013,4.578 0.077,4.783 0.464,5.326c1.13,1.587 6.465,2.647 7.352,2.851Z" style="fill:#fff;stroke:#fff;stroke-width:5px;stroke-miterlimit:2;"/><path d="M92.022,40.535c-0.01,3.82 1.622,4.11 4.648,7.295c1.079,1.135 2.1,2.192 3.623,5.085c0.873,1.659 1.357,3.632 1.602,3.851c0.395,0.352 2.762,0.036 5.997,0.181c0.973,0.043 0.764,-0.387 0.816,-1.36c0.231,-4.256 1.367,-6.118 1.899,-7.22c0.203,-0.42 1.508,-2.418 1.894,-2.948c1.205,-1.652 1.403,-2.102 1.055,-3.972c-0.589,-3.169 -4.648,-9.544 -4.581,-11.159c0.075,-1.821 2.705,-3.72 4.953,-2.123c0.378,0.269 0.89,1.083 0.955,1.186c0.02,0.032 2.765,5.504 2.896,5.784c0.612,1.31 0.956,1.963 1.49,3.613c0.178,0.55 0.134,0.799 0.696,0.656c0.084,-0.021 1.927,-1.573 2.659,-2.502c1.326,-1.685 1.102,-2.745 0.682,-5.113c-0.146,-0.825 -1.148,-4.08 -2.936,-8.181c-0.224,-0.513 -1.078,-2.665 -1.17,-2.898c-1.008,-2.539 -1.265,-3.243 -0.18,-4.584c0.753,-0.93 3.479,-1.855 4.83,0.614c1.224,2.237 2.063,4.967 3.872,9.354c0.725,1.756 0.871,3.441 1.005,3.527c0.049,0.031 0.385,0.001 0.427,-0.038c0.008,-0.008 0.966,-2.701 1.084,-3.19c1.884,-7.827 -0.063,-12.711 0.801,-14.494c0.794,-1.639 3.686,-2.67 5.366,-0.802c0.728,0.809 0.79,1.952 1.003,5.943c0.146,2.739 0.644,11.414 -4.322,18.606c-2.426,3.515 -3.495,4.173 -5.231,5.881c-3.782,3.722 -9.876,6.549 -11.348,11.317c-0.005,0.017 -0.436,1.053 -0.736,3.949c-0.044,0.425 -0.18,0.623 0.245,0.628c0.371,0.004 0.281,-0.151 0.445,-0.476c0.016,-0.031 0.752,-1.393 1.493,-2.461c0.096,-0.138 1.219,-1.354 1.773,-1.788c1.468,-1.152 2.812,-1.715 6.853,-3.065c0.832,-0.278 2.771,-0.822 3.013,-0.89c1.243,-0.349 1.239,-0.405 1.477,-0.358c0.43,0.085 0.183,0.648 -0.231,3.003c-0.433,2.464 -1.031,3.906 -1.226,4.519c-1.851,5.829 -5.764,7.248 -5.918,7.606c-0.126,0.293 0.296,0.6 0.343,0.634c2.359,1.714 2.557,2.04 4.045,3.171c0.984,0.748 0.805,0.979 0.297,3.036c-0.343,1.388 -0.599,1.573 0.412,2.583c1.815,1.813 1.817,1.803 3.699,3.539c0.401,0.369 0.378,0.392 4.911,4.718c0.881,0.84 2.748,2.519 2.989,2.736c2.056,1.848 2.13,1.878 2.108,2.381c-0.013,0.304 -0.016,0.369 -1.293,3.572c-0.096,0.241 -0.612,1.536 -1.242,2.991c-0.5,1.156 -1.03,1.654 -1.153,1.769c-0.476,0.447 -0.667,0.426 -2.294,2.525c-1.421,1.833 -1.913,1.934 -2.142,1.981c-0.282,0.058 -0.285,-0.002 -3.59,0.226c-1.963,0.136 -5.383,-0.834 -9.932,-1.43c-3.624,-0.475 -3.887,-0.813 -4.051,-0.244c-0.125,0.433 0.401,3.713 0.833,9.382c0.104,1.36 0.19,1.347 0.291,2.711c0.018,0.238 0.007,0.237 0.528,4.222c0.142,1.088 0.401,1.026 2.723,2.032c1.046,0.453 4.628,2.115 5.03,2.301c0.293,0.136 0.271,0.173 3.62,1.794c1.773,0.858 1.725,1.047 3.677,1.28c6.221,0.744 8.759,1.228 12.952,3.707c1.047,0.619 0.822,-0.413 0.814,-0.871c-0.074,-3.999 0.026,-3.997 -0.036,-49.995c-0.015,-11.093 -0.091,-11.104 0.119,-12.045c0.604,-2.701 2.888,-4.905 5.71,-5.148c2.206,-0.19 5.448,0.08 5.79,-0.173c0.448,-0.33 0.223,-0.458 0.271,-3.113c0.023,-1.286 0.219,-1.699 0.851,-2.722c1.22,-1.975 4.89,-2.68 6.851,-0.221c0.748,0.938 0.855,2.148 0.872,2.348c0.077,0.87 -0.052,3.312 0.151,3.587c0.27,0.367 1.802,0.177 6.6,0.244c1.472,0.021 2.102,0.191 2.255,-0.492c0.327,-1.463 -0.98,-4.622 2.212,-6.741c1.181,-0.785 4.317,-0.933 5.727,1.611c0.538,0.971 0.548,2.467 0.55,2.686c0.013,1.854 -0.12,2.675 0.327,2.848c0.386,0.15 4.397,-0.015 7.603,0.082c1.023,0.031 1.437,0.2 1.427,-0.822c-0.026,-2.578 -0.336,-4.22 1.466,-5.85c0.107,-0.097 1.731,-1.736 4.32,-0.746c1.097,0.42 2.205,1.511 2.483,2.662c0.555,2.297 -0.177,4.499 0.578,4.737c0.442,0.139 2.478,-0.112 7.795,0.037c1.061,0.03 0.854,-0.585 0.853,-2.046c-0.002,-1.677 -0.191,-3.269 1.805,-4.885c2.147,-1.74 6.647,-0.841 6.784,3.678c0.044,1.46 -0.084,2.776 0.161,3.042c0.187,0.204 0.583,0.206 0.637,0.207c4.825,0.032 6.451,-0.536 9.056,1.241c0.376,0.257 2.462,1.922 2.724,4.846c0.107,1.193 0.103,50.096 0.093,50.609c-0.016,0.909 -0.427,0.662 -1.327,0.541c-3.943,-0.528 -3.994,-0.175 -4.46,-0.385c-0.369,-0.166 -0.265,-0.476 -0.26,-4.984c0.026,-23.549 0.006,-30.203 -0.003,-32.829c-0.003,-1.035 -0.521,-0.857 -2.211,-0.854c-24.924,0.054 -73.502,-0.043 -73.758,0.066c-0.045,0.019 -0.32,0.137 -0.37,0.481c-0.045,0.31 0.059,0.309 0.03,3.922c-0.043,5.31 0.04,26.67 -0.025,37.646c-0.017,2.879 -0.007,14.131 -0.006,15.36c0.001,1.431 0.005,1.427 0.075,2.11c0.098,0.951 -0.25,0.823 -0.312,0.794c-0.319,-0.145 -0.369,-0.593 -1.263,-1.672c-5.13,-6.188 -11.635,-7.649 -13.793,-8.247c-0.31,-0.086 -1.524,-0.422 -3.909,-0.948c-0.642,-0.142 -0.659,-0.083 -3.927,0.805c-0.059,0.016 -6.627,2.01 -7.203,2.185c-0.269,0.082 -0.248,0.133 -3.342,1.106c-0.835,0.263 -1.238,0.528 -1.283,-0.343c-0.065,-1.24 -0.018,-1.24 -0.257,-3.017c-0.017,-0.124 -0.324,-4.027 -0.415,-5.717c-0.08,-1.483 -0.521,-5.536 -0.693,-8.146c-0.133,-2.004 -0.144,-2.174 -0.72,-2.654c-0.197,-0.165 -1.972,-1.451 -2.087,-1.532c-0.311,-0.219 -0.284,-0.244 -3.795,-2.861c-0.307,-0.229 -1.539,-1.195 -1.672,-1.299c-0.326,-0.256 -0.334,-0.241 -4.094,-3.171c-1.226,-0.955 -2.91,-2.327 -3.687,-2.917c-1.918,-1.456 -1.64,-1.821 -2.635,-3.962c-2.032,-4.374 -1.87,-4.437 -2.432,-5.709c-0.927,-2.095 -1.061,-2.105 -0.924,-2.383c0.275,-0.555 0.386,0.03 1.672,1.595c0.64,0.778 3.106,3.52 4.028,4.121c1.792,1.17 1.915,0.928 7.244,1.706c0.396,0.058 7.585,0.829 15.652,2.179c3,0.502 6.409,1.473 8.427,1.562c3.528,0.157 4.141,-0.254 4.437,-0.452c0.91,-0.61 0.925,-0.697 0.941,-0.794c0.008,-0.047 0.051,-0.305 -0.311,-0.508c-1.244,-0.699 -1.273,-0.651 -2.416,-1.504c-2.536,-1.893 -2.654,-1.931 -2.691,-2.793c-0.013,-0.306 0.029,-4.175 0.034,-4.218c0.091,-0.828 1.02,-0.661 1.512,-0.661c5.248,-0.009 5.242,0.013 6.328,0.089c0.054,0.004 0.624,0.043 0.591,-0.329c-0.021,-0.239 -0.48,-0.372 -1.155,-0.954c-0.374,-0.323 -2.858,-2.47 -4.618,-4.103c-3.438,-3.192 -3.48,-3.142 -6.789,-6.467c-0.976,-0.98 -1.25,-1.037 -1.041,-2.042c0.509,-2.451 0.98,-2.575 0.336,-3.276c-0.362,-0.393 -2.182,-1.59 -3.551,-2.78c-0.587,-0.511 -5.364,-4.079 -5.723,-4.248c-0.784,-0.367 -1.123,-0.136 -6.665,-0.199c-0.769,-0.009 -12.735,-0.029 -13.25,0.009c-1.717,0.126 -2.294,2.348 -3.249,1.406c-0.447,-0.441 -1.625,-2.222 -4.228,-4.514c-2.395,-2.109 -4.371,-2.734 -5.782,-3.233c-0.51,-0.18 -3.793,-1.11 -8.116,-1.614c-4.405,-0.514 -4.95,-0.926 -4.813,-0.217c0.063,0.325 0.5,0.138 3.013,1.171c6.491,2.668 8.494,3.155 10.471,5.504c1.012,1.202 4.748,6.758 6.157,8.037c0.726,0.658 -0.308,0.702 -0.372,0.704c-3.935,0.164 -10.079,1.882 -15.938,-2.208c-2.823,-1.971 -4.326,-4.607 -6.344,-9.292c-1.218,-2.827 -2.466,-7.117 -2.458,-7.226c0.028,-0.385 0.571,-0.388 0.63,-0.388c1.037,-0.006 6.757,0.2 9.954,0.628c8.33,1.115 12.294,2.774 16.584,6.355c1.862,1.555 1.785,1.727 2.077,1.704c0.494,-0.038 0.256,-0.687 0.234,-0.745c-1.441,-3.925 -3.298,-5.462 -5.921,-7.298c-1.101,-0.771 -4.505,-2.32 -6.641,-3.013c-0.659,-0.214 -8.875,-3.278 -10.214,-3.955c-1.512,-0.765 -3.318,-1.21 -7.956,-4.301c-2.53,-1.687 -4.033,-3.205 -4.348,-3.523c-1.777,-1.795 -2.215,-2.275 -3.902,-4.801c-2.118,-3.17 -3.052,-6.529 -3.22,-7.132c-0.158,-0.57 -0.964,-3.464 -1.41,-7.257c-0.334,-2.836 -0.249,-3.312 -0.199,-3.595c0.364,-2.062 4.536,-3.461 6.66,-0.405c0.764,1.099 0.298,2.184 1.143,6.394c0.721,3.592 2.207,6.351 2.484,6.865c0.458,0.85 0.908,1.503 0.994,1.628c2.261,3.282 4.537,4.914 4.646,4.999c0.966,0.749 1.024,0.657 2.009,1.381c0.501,0.369 0.783,0.216 0.703,-0.403c-0.169,-1.315 -0.357,-2.783 -0.298,-16.565c0.003,-0.676 -0.245,-2.458 1.765,-3.578c1.539,-0.858 4.936,-0.469 5.083,2.977c0.195,4.554 -0.469,15.593 0.609,18.977c0.907,2.847 2.541,3.377 3.372,3.817c0.463,0.245 5.992,2.427 6.268,2.428c0.55,0.003 0.206,-0.893 0.595,-2.939c0.377,-1.979 0.48,-1.95 0.937,-3.908c0.044,-0.19 1.1,-3.966 1.561,-4.784c1.606,-2.852 5.856,-1.356 5.994,1.163c0.079,1.447 -0.865,3.293 -1.61,7.218c-0.286,1.507 -0.334,1.498 -0.446,3.027Z" style="fill:#fff;stroke:#fff;stroke-width:5px;stroke-miterlimit:2;"/><path d="M217.274,135.121c2.336,-5.605 2.308,-5.616 2.514,-6.103c0.763,-1.804 0.659,-1.836 0.928,-2.729c0.101,-0.334 0.043,-0.476 0.389,-0.445c0.3,0.027 0.19,0.165 0.359,0.806c0.225,0.854 2.148,3.691 6.349,5.931c6.181,3.296 10.648,3.344 13.2,3.252c3.334,-0.12 4.37,-0.914 4.502,-0.919c0.069,-0.002 0.512,0.098 -0.171,0.84c-0.847,0.922 -2.734,3.84 -2.774,3.899c-1.03,1.516 -2.616,4.104 -2.698,4.225c-0.561,0.833 -0.512,0.856 -1.072,1.696c-1.81,2.71 -1.681,2.786 -3.403,5.556c-1.163,1.87 -1.398,2.622 -2.021,3.463c-0.379,0.511 -0.92,0.225 -2.012,0.153c-6.633,-0.44 -8.982,-0.951 -11.106,0.001c-4.367,1.957 -3.258,5.565 -3.252,5.646c0.046,0.617 -0.58,0.668 -0.669,0.695c-0.591,0.177 -0.616,0.225 -1.241,0.488c-1.608,0.676 -3.576,2.596 -2.766,5.465c0.282,0.998 0.258,1.118 -0.548,1.775c-0.178,0.145 -1.152,0.939 -1.591,2.391c-0.742,2.452 0.968,4.064 0.977,4.549c0.009,0.483 -1.208,1.878 -0.922,3.62c0.484,2.951 3.176,4.418 3.589,4.643c1.722,0.938 4.255,1.719 4.636,1.837c0.906,0.279 0.43,0.776 0.199,1.322c-0.356,0.839 -2.57,5.77 -3.113,7.013c-1.212,2.772 -1.169,2.785 -2.17,5.096c-1.416,3.267 -1.756,4.362 -2.434,6.011c-1.159,2.82 -1.13,2.825 -2.204,5.685c-1.667,4.438 -1.618,4.45 -1.778,4.829c-1.306,3.091 -0.896,4.315 -2.084,4.104c-1.754,-0.312 -12.979,-1.961 -24.179,-11.249c-0.79,-0.655 -0.994,-0.576 -0.937,-1.013c0.045,-0.339 0.977,-0.372 2.28,-1.377c0.753,-0.581 1.84,-1.294 3.923,-3.955c0.715,-0.913 1.287,-2.034 1.511,-2.42c2.17,-3.736 4.163,-8.378 4.778,-9.665c1.177,-2.465 1.139,-2.479 1.245,-2.691c0.605,-1.208 1.127,-2.555 1.203,-2.713c1.085,-2.247 1.039,-2.264 2.043,-4.548c0.204,-0.464 0.263,-0.435 2.616,-5.763c1.309,-2.963 1.286,-2.969 1.402,-3.225c0.917,-2.03 0.902,-2.036 0.992,-2.207c0.57,-1.081 2.381,-5.534 2.575,-5.944c1.257,-2.648 1.08,-2.756 1.42,-3.059c0.699,-0.62 1.009,0.563 4.223,-0.599c1.527,-0.552 2.931,-2.282 3.282,-3.616c0.595,-2.263 -0.279,-3.489 -1.45,-4.534c-0.377,-0.336 -0.401,-0.297 -0.528,-0.4c-0.798,-0.648 -0.159,-1.081 1.714,-5.597c3.234,-7.797 3.297,-7.77 3.559,-8.455c0.054,-0.142 0.061,-0.137 0.712,-1.764Z" style="fill:#fff;stroke:#fff;stroke-width:5px;stroke-miterlimit:2;"/><path d="M223.209,124.568c-0.041,-0.175 -0.509,-1.598 0.2,-2.516c1.487,-1.927 4.714,-1.819 6.156,-1.805c3.065,0.03 8.123,1.761 11.387,3.513c1.633,0.876 4.816,3.04 6.221,5.54c1.986,3.532 -4.599,4.03 -5.255,4.079c-6.257,0.473 -10.528,-1.718 -11.823,-2.354c-5.329,-2.618 -6.266,-5.03 -6.887,-6.457Z" style="fill:#fff;stroke:#fff;stroke-width:5px;stroke-miterlimit:2;"/><path d="M75.686,213.09c0.493,1.273 0.297,1.317 0.45,5.136c0.038,0.944 -0.025,1.305 0.072,2.406c0.005,0.051 0.049,0.558 -0.245,0.596c-0.214,0.027 -0.274,0.035 -2.432,-1.157c-0.264,-0.146 -0.277,-0.12 -3.318,-1.795c-1.837,-1.012 -1.838,-0.997 -3.633,-2.077c-2.134,-1.285 -2.162,-1.228 -4.267,-2.646c-1.261,-0.85 -1.872,-1.207 -2.039,-1.305c-0.046,-0.027 -0.54,-0.316 -0.568,-0.353c-0.43,-0.563 0.122,-0.519 2.051,-1.88c1.4,-0.988 6.848,-5.131 6.95,-5.149c0.693,-0.121 0.966,0.862 3.538,3.813c0.104,0.119 2.119,2.663 2.556,3.187c0.408,0.489 0.819,1.124 0.884,1.226Z" style="fill:#fff;stroke:#fff;stroke-width:5px;stroke-miterlimit:2;"/><path d="M242.186,130.598c-0.252,-0.37 -0.795,-1.363 -2.109,-2.39c-0.929,-0.726 -2.114,-1.289 -2.306,-1.391c-3.463,-1.832 -6.799,-2.036 -7.007,-2.044c-1.378,-0.051 -0.919,0.583 -0.859,0.644c0.057,0.057 0.475,0.149 0.518,0.158c5.005,1.099 7.642,2.885 7.939,3.109c1.827,1.377 1.786,1.974 1.77,2.199c-0.069,0.986 -1.821,0.85 -1.834,0.85c-4.3,-0.039 -8.955,-2.387 -10.582,-3.816c-0.64,-0.562 -2.484,-2.082 -2.553,-3.67c-0.121,-2.737 4.064,-2.432 5.003,-2.391c3.717,0.16 8.698,2.129 11.807,4.419c5.579,4.109 1.635,5.147 1.448,5.216c-0.844,0.313 -0.778,-0.117 -1.234,-0.895Z" style="fill:#fff;stroke:#fff;stroke-width:5px;stroke-miterlimit:2;"/><path d="M219.034,163.602c2.344,0.24 8.432,1.409 12.028,1.957c2.022,0.308 2.961,0.573 3.31,2.069c0.067,0.286 0.453,1.591 -0.922,2.673c-0.735,0.578 -0.842,0.578 -5.072,-0.087c-0.008,-0.001 -11.158,-2.075 -12.028,-2.653c-1.735,-1.152 -0.489,-4.231 1.761,-4.059c0.619,0.047 0.813,0.087 0.924,0.099Z" style="fill:#fff;stroke:#fff;stroke-width:5px;stroke-miterlimit:2;"/><path d="M231.278,174.564c0.004,0.074 0.408,2.255 -1.404,3.021c-0.655,0.277 -1.067,0.051 -1.805,-0.08c-1.305,-0.232 -12.052,-2.519 -13.569,-3.243c-2.078,-0.992 -1.263,-4.074 0.91,-3.953c0.728,0.041 14.505,2.952 15.026,3.139c0.808,0.289 0.712,0.626 0.842,1.118Z" style="fill:#fff;stroke:#fff;stroke-width:5px;stroke-miterlimit:2;"/><path d="M180.376,141.424c-0.024,0.762 0.051,0.793 -0.112,0.975c-0.225,0.25 -0.277,0.223 -3.707,0.231c-4.371,0.011 -4.523,0.061 -4.671,-0.358c-0.015,-0.042 -0.047,-0.044 -0.061,-5.668c-0.005,-2.073 -0.071,-2.43 0.264,-2.627c0.267,-0.157 0.283,-0.13 3.865,-0.16c3.883,-0.033 3.908,-0.065 4.183,0.126c0.303,0.211 0.245,0.558 0.241,2.963c-0.001,1.506 -0.001,3.013 -0.002,4.519Z" style="fill:#fff;stroke:#fff;stroke-width:5px;stroke-miterlimit:2;"/><path d="M193.6,141.728c-0.019,0.473 0.044,0.495 -0.091,0.656c-0.26,0.309 -0.332,0.243 -3.701,0.249c-4.331,0.007 -4.338,-0.004 -4.483,-0.073c-0.484,-0.232 -0.25,-0.423 -0.301,-7.46c-0.001,-0.071 -0.006,-0.781 0.027,-0.882c0.145,-0.447 0.822,-0.344 2.95,-0.365c0.386,-0.004 4.541,-0.045 4.823,-0.034c0.907,0.035 0.72,0.568 0.72,2.184c0.001,2.524 0,4.656 0.056,5.725Z" style="fill:#fff;stroke:#fff;stroke-width:5px;stroke-miterlimit:2;"/><path d="M211.3,112.511c0,-0.337 0.006,-4.124 0.01,-4.212c0.035,-0.687 0.389,-0.773 0.786,-0.761c1.208,0.034 1.203,0.029 2.409,0.03c5.005,0.006 5.089,-0.052 5.271,0.221c0.11,0.164 0.11,1.02 0.11,1.109c0.001,4.606 0.032,6.338 0.012,6.624c-0.061,0.862 -0.58,0.707 -2.684,0.702c-5.124,-0.011 -5.129,0.077 -5.447,-0.015c-0.54,-0.156 -0.436,-0.51 -0.468,-3.697Z" style="fill:#fff;stroke:#fff;stroke-width:5px;stroke-miterlimit:2;"/><path d="M158.702,140.822c-0.004,-6.582 -0.055,-6.64 0.166,-6.841c0.175,-0.159 0.756,-0.158 0.823,-0.158c6.588,0.013 6.934,-0.055 7.204,0.11c0.372,0.228 0.231,0.353 0.263,6.586c0.008,1.585 0.28,2.121 -0.841,2.094c-2.515,-0.06 -4.96,0.009 -6.626,0.002c-1.258,-0.005 -0.988,-0.538 -0.989,-1.794Z" style="fill:#fff;stroke:#fff;stroke-width:5px;stroke-miterlimit:2;"/><path d="M206.723,128.472c-0.025,0.518 0.103,0.574 -0.155,0.798c-0.219,0.189 -0.898,0.074 -7.122,0.114c-0.953,0.006 -1.256,0.049 -1.276,-0.907c-0.012,-0.554 0.015,-0.554 -0.017,-6.931c-0,-0.062 -0.003,-0.601 0.202,-0.754c0.266,-0.197 0.986,-0.098 5.006,-0.135c3.033,-0.028 3.126,-0.003 3.255,0.312c0.133,0.325 -0.072,3.874 0.107,7.503Z" style="fill:#fff;stroke:#fff;stroke-width:5px;stroke-miterlimit:2;"/><path d="M180.374,127.57c0.007,0.806 0.063,1.381 -0.12,1.574c-0.23,0.242 -0.28,0.213 -3.095,0.212c-0.19,-0 -4.742,-0.016 -4.811,-0.026c-0.637,-0.099 -0.529,-0.815 -0.529,-0.856c0.035,-6.647 -0.043,-6.643 0.007,-7.219c0.062,-0.709 0.503,-0.553 4.128,-0.572c3.843,-0.021 4.24,-0.086 4.38,0.313c0.053,0.152 0.028,0.156 0.04,6.575Z" style="fill:#fff;stroke:#fff;stroke-width:5px;stroke-miterlimit:2;"/><path d="M193.555,128.472c-0.01,0.098 0.031,0.196 0.021,0.294c-0.065,0.63 -0.528,0.621 -0.755,0.625c-0.679,0.012 -6.373,-0.013 -6.928,-0.015c-1.037,-0.004 -0.834,-0.678 -0.836,-1.807c-0.006,-3.012 0.012,-3.006 -0.053,-6.023c-0.022,-1.038 0.487,-0.826 2.094,-0.853c2.246,-0.037 5.708,-0.059 6.009,0.007c0.626,0.136 0.413,1.205 0.452,2.352c0.041,1.211 0.004,1.205 -0.014,2.413c-0.023,1.504 -0.002,2.157 0.01,3.007Z" style="fill:#fff;stroke:#fff;stroke-width:5px;stroke-miterlimit:2;"/><path d="M211.303,86.008c0.004,-3.326 -0.02,-3.323 -0.006,-3.612c0.025,-0.527 0.007,-0.63 0.517,-0.762c0.078,-0.02 5.59,-0.043 6.907,-0.043c1.039,-0 1.104,0.255 1.098,1.103c-0.045,6.371 0.038,6.372 0.004,6.924c-0.049,0.786 -0.313,0.702 -1.103,0.685c-2.675,-0.058 -6.701,0.036 -6.94,-0.021c-0.558,-0.134 -0.463,-0.457 -0.476,-4.273Z" style="fill:#fff;stroke:#fff;stroke-width:5px;stroke-miterlimit:2;"/><path d="M193.527,89.32c-0.033,0.503 0.116,0.568 -0.18,0.823c-0.238,0.206 -0.288,0.108 -6.249,0.147c-1.344,0.009 -2.056,0.203 -2.085,-0.67c-0.024,-0.722 -0.014,-6.648 -0.013,-7.226c0.002,-0.979 0.47,-0.79 3.302,-0.784c3.407,0.008 4.783,-0.011 4.797,-0.007c0.487,0.164 0.428,0.277 0.427,0.789c-0.001,0.554 -0.007,5.619 0.001,6.927Z" style="fill:#fff;stroke:#fff;stroke-width:5px;stroke-miterlimit:2;"/><path d="M211.297,101.368c0.016,-4.992 0.016,-4.99 0.011,-5.423c-0.012,-0.988 -0.203,-1.393 0.788,-1.402c0.217,-0.002 7.165,-0.001 7.217,0.002c0.514,0.028 0.537,0.448 0.54,0.507c0.01,0.197 -0.007,3.317 -0.008,3.605c-0.023,4.104 0.027,4.131 -0.115,4.29c-0.274,0.306 -0.616,0.215 -1.912,0.221c-6.019,0.029 -6.06,0.118 -6.275,-0.06c-0.312,-0.259 -0.245,-0.83 -0.245,-1.74Z" style="fill:#fff;stroke:#fff;stroke-width:5px;stroke-miterlimit:2;"/><path d="M193.584,115.223c-0.034,0.357 0.155,0.963 -0.761,0.979c-2.23,0.041 -6.099,0.003 -6.629,-0.002c-0.922,-0.009 -1.149,-0.058 -1.156,-0.979c-0.005,-0.577 -0.055,-6.972 -0.005,-7.218c0.123,-0.614 0.665,-0.375 5.074,-0.435c2.851,-0.039 3.031,-0.105 3.286,0.15c0.203,0.203 0.141,0.664 0.154,5.998c0.002,0.757 0.002,0.751 0.037,1.508Z" style="fill:#fff;stroke:#fff;stroke-width:5px;stroke-miterlimit:2;"/><path d="M167.129,127.872c0.005,0.442 0.081,1.047 -0.14,1.269c-0.203,0.205 -0.245,0.174 -3.684,0.199c-0.186,0.001 -3.662,0.015 -3.912,0.001c-0.745,-0.041 -0.696,-0.712 -0.7,-0.864c-0.021,-0.818 -0.04,-7.185 -0.031,-7.253c0.095,-0.695 0.395,-0.565 3.439,-0.562c4.406,0.005 4.422,-0.063 4.776,0.081c0.369,0.149 0.309,0.554 0.288,2.61c-0.019,1.862 -0.024,1.857 -0.036,4.519Z" style="fill:#fff;stroke:#fff;stroke-width:5px;stroke-miterlimit:2;"/><path d="M158.664,99.561c-0.004,-1.512 -0.021,-1.506 -0.032,-3.013c-0.009,-1.289 -0.045,-1.801 0.483,-1.982c0.062,-0.021 0.058,-0.027 5.696,-0.02c1.602,0.002 2.331,-0.169 2.324,0.8c-0.05,6.646 0.006,6.645 -0.001,7.222c-0.001,0.049 -0.005,0.412 -0.246,0.558c-0.097,0.059 -0.102,0.085 -2.679,0.102c-4.723,0.031 -4.733,0.078 -5.125,-0.042c-0.504,-0.155 -0.418,-0.519 -0.421,-3.626Z" style="fill:#fff;stroke:#fff;stroke-width:5px;stroke-miterlimit:2;"/><path d="M193.529,101.971c-0.015,0.205 0.014,0.412 -0.001,0.617c-0.052,0.687 -0.53,0.579 -2.816,0.58c-2.166,0 -3.373,-0.006 -4.819,0.016c-0.919,0.014 -0.877,-0.291 -0.879,-1.213c-0.001,-0.554 -0.015,-6.714 0.018,-6.919c0.105,-0.646 0.795,-0.468 3.273,-0.507c0.383,-0.006 4.574,-0.072 4.793,0.005c0.489,0.172 0.447,0.275 0.443,0.795c-0.026,3.314 -0.002,3.308 -0.01,6.627Z" style="fill:#fff;stroke:#fff;stroke-width:5px;stroke-miterlimit:2;"/><path d="M205.168,116.226c-5.828,-0.019 -5.827,0.007 -6.332,-0.036c-0.804,-0.069 -0.646,-0.824 -0.66,-2.172c-0.005,-0.458 -0.034,-3.221 -0.032,-5.727c0,-0.063 0,-0.588 0.362,-0.695c0.326,-0.096 0.334,-0.049 4.253,-0.033c3.498,0.015 3.761,-0.08 3.87,0.441c0.083,0.4 0.023,0.404 0.03,5.109c0.003,2.325 0.171,2.852 -0.277,3.031c-0.456,0.183 -0.469,0.073 -1.215,0.081Z" style="fill:#fff;stroke:#fff;stroke-width:5px;stroke-miterlimit:2;"/><path d="M173.545,116.233c-0.229,-0.003 -1.42,0.102 -1.616,-0.348c-0.168,-0.385 -0.075,-2.876 -0.096,-6.988c-0,-0.071 -0.004,-0.84 0.011,-0.881c0.018,-0.047 0.129,-0.346 0.474,-0.418c0.042,-0.009 7.332,-0.049 7.576,0.018c0.69,0.192 0.35,0.513 0.42,6.701c0.009,0.755 0.148,1.477 -0.174,1.77c-0.134,0.122 -0.16,0.148 -6.594,0.146Z" style="fill:#fff;stroke:#fff;stroke-width:5px;stroke-miterlimit:2;"/><path d="M180.308,96.549c0.005,2.72 -0,5.143 0.025,5.724c0.047,1.084 -0.651,0.921 -1.668,0.932c-1.522,0.016 -5.893,0.006 -6.026,-0.004c-0.969,-0.072 -0.783,-0.664 -0.792,-2.736c-0.002,-0.433 -0.023,-5.364 -0.019,-5.411c0.047,-0.49 0.464,-0.515 0.523,-0.518c0.147,-0.009 5.808,0.028 6.313,0.032c0.476,0.003 1.26,-0.077 1.514,0.169c0.135,0.131 0.147,0.834 0.148,0.907c0.001,0.072 -0.001,0.067 -0.018,0.906Z" style="fill:#fff;stroke:#fff;stroke-width:5px;stroke-miterlimit:2;"/><path d="M160.293,116.248c-0.356,-0.002 -1.396,0.127 -1.564,-0.403c-0.043,-0.135 -0.045,-0.851 -0.045,-0.925c-0.017,-6.109 -0.041,-6.104 -0.028,-6.635c0.002,-0.063 0.014,-0.57 0.409,-0.671c0.089,-0.023 0.853,-0.021 0.927,-0.021c2.945,0.006 6.513,-0.012 6.643,0.01c0.367,0.064 0.492,0.36 0.512,0.408c0.112,0.265 0.009,0.279 -0.008,3.595c-0.021,4.226 0.043,4.302 -0.229,4.506c-0.227,0.17 -0.261,0.085 -6.617,0.135Z" style="fill:#fff;stroke:#fff;stroke-width:5px;stroke-miterlimit:2;"/><path d="M198.171,96.249c-0.003,-0.098 -0.03,-1.123 -0.009,-1.224c0.01,-0.049 0.068,-0.339 0.408,-0.476c0.071,-0.028 0.528,-0.02 0.573,-0.02c5.844,0.103 7.012,-0.102 7.287,0.137c0.316,0.275 0.217,0.856 0.213,1.28c-0.03,3.106 0.066,6.689 -0.026,6.902c-0.16,0.369 -0.496,0.33 -3.257,0.316c-4.617,-0.022 -4.621,0.02 -4.808,-0.027c-0.594,-0.149 -0.353,-0.429 -0.382,-6.889Z" style="fill:#fff;stroke:#fff;stroke-width:5px;stroke-miterlimit:2;"/><path d="M198.159,89.321c0.022,-1.065 0.019,-1.061 0.019,-3.011c-0,-4.338 -0.043,-4.365 0.083,-4.502c0.313,-0.342 0.396,-0.165 2.089,-0.165c5.713,-0.001 5.731,-0.018 6.036,0.132c0.257,0.127 0.271,0.201 0.253,3.029c-0.031,5.008 0.007,5.041 -0.14,5.211c-0.29,0.337 -0.374,0.201 -4.643,0.248c-3.225,0.036 -3.627,0.145 -3.699,-0.632c-0.01,-0.103 0.011,-0.208 0.002,-0.311Z" style="fill:#fff;stroke:#fff;stroke-width:5px;stroke-miterlimit:2;"/><path d="M236.425,160.11c0.007,0.066 0.395,1.254 -0.89,2.335c-0.654,0.55 -0.805,0.719 -5.951,-0.074c-1.818,-0.28 -1.806,-0.316 -3.627,-0.536c-0.366,-0.044 -3.441,-0.415 -4.534,-0.813c-2.232,-0.813 -1.144,-4.049 1.513,-4.069c2.964,-0.023 11.142,0.758 12.271,1.466c0.361,0.226 0.7,0.654 0.752,0.72c0.339,0.429 0.279,0.461 0.467,0.971Z" style="fill:#fff;stroke:#fff;stroke-width:5px;stroke-miterlimit:2;"/><path d="M214.725,61.011c0.004,-6.933 -0.024,-6.934 0.042,-7.533c0.216,-1.976 2.515,-2.24 3.13,-0.324c0.15,0.467 0.138,0.475 0.139,7.857c0,1.214 -0.102,1.348 0.651,1.86c2.042,1.388 -0.12,4.508 -2.659,4.057c-2.433,-0.432 -3.183,-2.954 -1.995,-3.969c0.113,-0.097 0.247,-0.168 0.359,-0.266c0.435,-0.382 0.332,-1.534 0.334,-1.681Z" style="fill:#fff;stroke:#fff;stroke-width:5px;stroke-miterlimit:2;"/><path d="M161.842,55.59c-0.005,-1.888 -0.111,-2.673 0.574,-3.297c0.625,-0.569 1.729,-0.628 2.355,0.31c0.32,0.478 0.336,0.913 0.407,9.01c0.01,1.143 0.405,1.079 0.744,1.327c0.033,0.024 1.443,1.015 0.216,2.674c-1.791,2.42 -5.144,1.232 -5.539,-0.988c-0.258,-1.451 1.036,-1.66 1.178,-2.413c0.067,-0.354 0.065,-6.092 0.065,-6.622Z" style="fill:#fff;stroke:#fff;stroke-width:5px;stroke-miterlimit:2;"/><path d="M228.166,181.483c-0.009,0.09 0.086,1.248 -1.065,2.026c-0.877,0.594 -1.587,0.3 -4.154,-0.265c-0.485,-0.107 -1.588,-0.349 -5.992,-1.613c-3.534,-1.014 -3.88,-2.058 -3.646,-3.162c0.305,-1.433 1.409,-1.288 2.374,-1.076c0.388,0.085 0.375,0.131 4.815,1.203c2.272,0.549 2.274,0.514 4.553,1.049c2.624,0.616 2.77,0.8 2.924,0.993c0.241,0.303 0.138,0.342 0.191,0.843Z" style="fill:#fff;stroke:#fff;stroke-width:5px;stroke-miterlimit:2;"/><path d="M179.355,55.891c-0.006,-2.119 -0.123,-2.86 0.549,-3.581c0.497,-0.533 1.701,-0.6 2.351,0.286c0.626,0.852 0.203,3.742 0.352,9.017c0.031,1.088 0.432,0.984 0.811,1.293c0.795,0.649 1.232,2.4 -0.761,3.651c-1.335,0.838 -3.182,0.407 -4.087,-0.969c-1.129,-1.716 0.524,-2.721 0.675,-3.081c0.081,-0.193 0.141,-0.198 0.111,-6.616Z" style="fill:#fff;stroke:#fff;stroke-width:5px;stroke-miterlimit:2;"/><path d="M197.172,60.709c0.034,-1.787 0.008,-6.318 0.038,-6.932c0.098,-1.995 1.672,-2.243 2.533,-1.496c0.777,0.675 0.659,0.991 0.669,6.621c0.006,3.375 -0.052,3.515 0.553,3.896c1.545,0.972 0.842,2.796 -0.107,3.509c-2.095,1.574 -4.856,0.039 -4.915,-1.988c-0.03,-1.041 0.679,-1.39 0.809,-1.48c0.467,-0.326 0.449,-0.725 0.42,-2.13Z" style="fill:#fff;stroke:#fff;stroke-width:5px;stroke-miterlimit:2;"/><path d="M112.395,73.671c1.418,1.637 1.495,1.61 1.494,1.797c-0.001,0.329 -0.524,0.314 -0.576,0.313c-1.923,-0.054 -6.678,0.421 -7.485,0.149c-1.401,-0.471 -2.664,-2.38 -4.558,-4.084c-0.537,-0.483 -0.962,-0.685 -0.988,-0.881c-0.044,-0.333 0.029,-0.371 0.362,-0.393c0.314,-0.02 0.306,0.144 3.933,0.144c4.32,0 4.588,-0.124 6.001,1.16c0.947,0.861 0.933,0.865 1.817,1.793Z" style="fill:#fff;stroke:#fff;stroke-width:5px;stroke-miterlimit:2;"/><path d="M210.549,155.558c-0.248,0.345 -1.16,1.935 -3.865,1.469c-2.326,-0.401 -4.377,-2.416 -3.972,-3.574c0.259,-0.74 2.328,-2.399 3.615,-1.95c0.435,0.152 4.011,1.984 4.341,2.838c0.235,0.608 -0.083,1.113 -0.119,1.217Z" style="fill:#fff;stroke:#fff;stroke-width:5px;stroke-miterlimit:2;"/><path d="M194.346,206.141c0.669,0.397 2.424,1.25 2.637,1.353c0.507,0.246 2.793,1.211 3.364,1.398c3.665,1.198 3.663,1.202 3.897,1.266c0.051,0.014 0.508,0.139 0.615,0.242c0.3,0.287 0.052,0.569 0.019,0.605c-0.174,0.197 -0.792,0.299 -4.254,-0.836c-2.126,-0.697 -6.324,-2.389 -8.947,-4.378c-1.009,-0.766 -2.493,-1.731 -2.041,-2.217c0.159,-0.171 0.425,-0.077 0.46,-0.064c0.377,0.133 0.281,0.293 4.249,2.631Z" style="fill:#fff;stroke:#fff;stroke-width:5px;stroke-miterlimit:2;"/><path d="M198.551,202.544c0.942,0.5 5.113,2.254 7.201,2.796c0.065,0.017 0.695,0.18 0.779,0.321c0.12,0.2 0.082,0.789 -0.757,0.751c-1.538,-0.07 -9.132,-2.847 -13.32,-6.183c-1.123,-0.895 -0.359,-1.095 -0.268,-1.105c0.575,-0.062 0.418,0.376 6.365,3.42Z" style="fill:#fff;stroke:#fff;stroke-width:5px;stroke-miterlimit:2;"/><path d="M201.876,192.886c0.703,0.393 2.024,1.129 6.88,2.823c0.67,0.234 1.584,0.305 1.552,0.831c-0.006,0.092 -0.198,0.6 -0.908,0.483c-0.998,-0.164 -3.528,-0.967 -5.753,-1.953c-1.852,-0.821 -1.86,-0.797 -3.624,-1.798c-0.921,-0.523 -3.443,-2.21 -3.588,-2.455c-0.248,-0.42 -0.101,-1.165 0.864,-0.537c1.318,0.858 1.68,1.088 4.578,2.606Z" style="fill:#fff;stroke:#fff;stroke-width:5px;stroke-miterlimit:2;"/><path d="M200.347,197.747c0.413,0.214 3.299,1.505 3.942,1.732c3.772,1.33 3.974,1.174 4.017,1.555c0.068,0.609 -0.652,0.57 -0.725,0.566c-1.502,-0.081 -8.468,-2.56 -12.407,-5.591c-0.086,-0.066 -0.911,-0.701 -0.947,-0.967c-0.011,-0.086 -0.104,-0.899 1.079,-0.139c3.084,1.981 3.655,2.12 5.041,2.844Z" style="fill:#fff;stroke:#fff;stroke-width:5px;stroke-miterlimit:2;"/><path d="M209.716,190.734c2.008,0.69 2.541,0.646 2.371,1.283c-0.117,0.438 -0.821,0.33 -0.897,0.319c-3.422,-0.524 -11.041,-4.442 -12.536,-6.125c-0.346,-0.39 -0.232,-1.215 0.563,-0.664c1.548,1.072 5.081,2.936 6.001,3.347c2.064,0.919 2.041,0.968 4.498,1.84Z" style="fill:#fff;stroke:#fff;stroke-width:5px;stroke-miterlimit:2;"/><path d="M205.77,184.793c-1.149,-0.629 -1.178,-0.567 -2.483,-1.393c-2.941,-1.862 -2.982,-2.352 -2.746,-2.607c0.57,-0.614 0.538,0.396 6.363,3.245c3.863,1.89 6.733,2.644 7.04,2.813c0.307,0.17 0.214,0.685 -0.113,0.803c-0.74,0.266 -5.388,-1.448 -8.061,-2.861Z" style="fill:#fff;stroke:#fff;stroke-width:5px;stroke-miterlimit:2;"/><path d="M232.293,141.015c4.626,0.752 5.334,0.425 6.304,0.414c0.283,-0.003 0.352,0.005 0.358,0.288c0.023,1.085 -3.382,0.764 -5.171,0.567c-0.927,-0.102 -5.1,-0.891 -7.829,-2.373c-0.545,-0.296 -0.305,-0.735 0.295,-0.598c0.678,0.154 1.355,0.787 6.043,1.702Z" style="fill:#fff;stroke:#fff;stroke-width:5px;stroke-miterlimit:2;"/><path d="M234.087,145.825c1.244,0.019 1.24,0.032 1.512,0.008c0.331,-0.03 0.367,-0.141 0.621,0.08c0.076,0.067 0.546,0.613 -0.948,0.842c-0.408,0.062 -3.739,0.066 -6.011,-0.507c-2.96,-0.747 -4.377,-1.504 -4.443,-1.577c-0.202,-0.224 -0.077,-0.557 0.22,-0.577c0.735,-0.048 1.787,1.221 9.048,1.732Z" style="fill:#fff;stroke:#fff;stroke-width:5px;stroke-miterlimit:2;"/><path d="M229.257,150.791c-0.393,-0.058 -3.058,-0.45 -4.8,-1.251c-0.43,-0.198 -0.188,-0.564 -0.021,-0.603c0.517,-0.119 3.472,1.236 8.749,1.123c1.136,-0.024 0.613,0.648 0.333,0.761c-1.011,0.408 -3.568,0.049 -4.261,-0.031Z" style="fill:#fff;stroke:#fff;stroke-width:5px;stroke-miterlimit:2;"/></g><g id="_2bc725e8069659c3251b78562634891f.jpg1" serif:id="2bc725e8069659c3251b78562634891f.jpg"><path d="M128.231,217.044l-0.067,0.257c0.027,0.098 0.229,0.066 0.256,0.164c0.041,0.147 -1.498,0.181 -2.864,0.442c-1.95,0.372 -1.951,0.326 -3.913,0.618c-0.877,0.13 -0.833,0.988 -0.871,1.192c-0.063,0.339 -0.421,2.264 -0.906,4.218c-0.708,2.848 -0.479,3.712 -0.995,3.121c-0.165,-0.189 -0.161,-0.19 -0.216,-0.431c-0.379,-1.69 -0.49,-2.344 -1.762,-5.437c-1.149,-2.795 -1.664,-2.598 -1.885,-2.631c-1.295,-0.194 -4.147,-0.182 -4.508,-0.18c-0.63,0.003 -2.789,0.012 -7.842,0.666c-0.385,0.05 -4.344,0.562 -4.815,0.636c-1.006,0.158 -1.544,0.061 -1.469,0.933c0.43,5 0.389,5.003 0.438,5.437c0.194,1.739 0.274,4.417 0.44,4.803c0.196,0.458 1.374,0.786 2.669,1.298c1.311,0.519 6.373,2.522 16.583,5.982c0.601,0.204 0.668,0.175 1.83,-0.339c3.067,-1.355 3.054,-1.372 3.322,-1.485c1.543,-0.65 10.291,-4.81 11.081,-5.245c1.473,-0.812 1.991,-0.85 2.1,-1.422c0.065,-0.34 0.034,-0.343 -0.055,-12.337c-0.017,-2.311 0.532,-2.804 1.029,-8.131c0.098,-1.052 0.202,-1.04 0.387,-4.814c0.13,-2.637 -0.075,-2.636 -0.015,-3.312c0.074,-0.826 2.09,-3.623 2.956,-6.02c1.052,-2.91 1.757,-4.66 1.303,-11.161c-0.147,-2.103 0.186,-2.561 -1.059,-2.898c-1.365,-0.369 -1.356,-0.391 -1.475,-0.418c-0.189,-0.043 -0.38,-0.075 -0.567,-0.125c-0.339,-0.09 -3.574,-0.948 -4.233,-1.146c-3.745,-1.127 -3.91,-0.7 -4.108,-0.973c-0.036,-0.049 0.016,-0.122 0.013,-0.183c-0.003,-0.049 -0.101,-0.203 0.145,-0.293c0.18,-0.065 1.107,-0.074 1.204,-0.075c0.341,-0.003 0.921,-0.009 4.24,-0.443c0.216,-0.028 2.259,-0.296 2.701,-0.368c3.308,-0.544 3.324,-0.587 3.999,-1.086c1.444,-1.069 1.932,-1.686 2.717,-2.765c0.059,-0.081 0.419,-0.577 0.686,-1.042c1.555,-2.716 2.714,-6.075 2.573,-11.669c-0.162,-6.468 -0.929,-8.026 -0.607,-8.407c0.212,-0.251 0.25,-0.199 0.575,-0.201c0.53,-0.003 0.526,0.014 6.622,0.003c10.368,-0.02 41.81,0.003 41.814,0.005c0.032,0.014 0.171,0.323 0.157,0.481c-0.013,0.146 -0.634,1.198 -0.887,1.844c-1.104,2.823 -0.979,2.95 -1.393,3.142c-0.363,0.169 -0.527,0.043 -25.236,0.089c-8.318,0.016 -8.318,-0.045 -9.041,-0.013c-0.435,0.019 -0.5,0.306 -0.511,0.354c-0.011,0.049 -0.018,0.081 0.186,0.606c0.578,1.479 0.621,1.488 1.8,2.733c3.748,3.957 7.461,9.578 9.127,14.404c1.255,3.633 1.21,3.646 1.368,4.856c0.007,0.053 0.075,0.576 0.384,0.543c0.154,-0.017 0.777,-0.341 0.843,-0.376c0.557,-0.29 1.817,-0.946 7.253,-2.988c1.766,-0.663 5.579,-2.284 6.367,-2.598c0.905,-0.361 5.286,-2.425 5.967,-2.819c0.003,-0.002 3.797,-1.952 4.559,-2.63c0.797,-0.709 -0.044,-1.907 0.354,-6.614c0.163,-1.921 1.826,-8.176 2.004,-8.756c0.094,-0.305 0.705,-2.291 1.992,-3.457c0.426,-0.386 1.752,-1.038 2.323,-1.205c3.318,-0.971 3.831,0.457 4.411,-0.19c0.072,-0.08 0.237,-0.542 0.255,-0.59c0.398,-1.109 5.042,-12.201 5.121,-12.361c0.272,-0.549 2.181,-5.426 2.57,-6.246c0.573,-1.207 1.413,-3.401 1.944,-4.591c0.918,-2.059 1.414,-4.053 2.6,-5.3c2.635,-2.77 8.34,-2.582 11.391,-1.998c2.254,0.431 2.452,0.524 4.815,1.261c5.034,1.57 15.184,7.796 13.751,12.688c-0.118,0.402 -0.247,0.842 -2.716,4.483c-5.198,7.663 -11.211,17.989 -11.448,18.376c-0.643,1.055 0.215,0.922 1.248,1.911c0.263,0.251 2.111,2.02 2.372,3.878c0.365,2.597 -1.81,4.497 -2.062,4.769c-0.705,0.764 -0.41,0.987 0.001,3.355c0.544,3.137 -1.956,4.414 -2.619,5.163c-0.489,0.552 -0.217,1.632 -0.328,2.663c-0.37,3.428 -2.173,3.57 -3.137,4.74c-0.487,0.591 -0.297,2.902 -2.013,4.59c-1.212,1.192 -5.854,3.14 -7.51,3.404c-0.615,0.098 -0.616,0.055 -1.231,0.151c-0.735,0.114 -0.533,0.403 -1.391,2.218c-0.45,0.952 -5.037,11.458 -8.289,20.111c-1.356,3.609 -1.344,3.606 -3.192,9.078c-0.69,2.044 -0.652,2.66 -1.262,2.755c-0.357,0.056 -4.397,-0.527 -5.128,-0.684c-3.322,-0.714 -3.33,-0.671 -6.587,-1.635c-5.584,-1.651 -10.638,-4.925 -10.833,-5.056c-0.627,-0.421 -0.61,-0.436 -1.228,-0.862c-2.28,-1.569 -4.91,-3.985 -5.175,-4.118c-0.495,-0.249 -0.502,0.018 -2.661,1.184c-1.342,0.725 -2.251,1.257 -2.729,1.473c-1.48,0.668 -2.379,1.291 -3.028,1.429c-0.777,0.165 -3.903,-1.055 -5.97,-2.408c-2.316,-1.516 -2.323,-1.501 -2.518,-1.642c-0.363,-0.263 -3.355,-2.436 -4.52,-3.313c-6.477,-4.878 -9.377,-7.744 -11.424,-9.991c-0.907,-0.995 -0.838,-1.072 -0.95,-1.105c-0.072,-0.021 -0.146,0.047 -0.221,0.046c-0.056,-0 -0.11,-0.072 -0.162,-0.049c-0.076,0.034 -0.18,0.394 -0.191,0.43c-0.624,2.15 -0.817,2.076 -1.745,4.546c-0.538,1.432 -0.166,4.616 -1.375,12.673c-0.396,2.635 0.479,9.243 0.334,11.758c-0.016,0.27 -0.052,0.327 0.2,0.423c0.157,0.06 0.838,-0.311 0.906,-0.348c0.53,-0.289 3.299,-1.796 6.586,-3.689c1.29,-0.743 6.337,-3.938 6.885,-4.285c0.293,-0.186 2.208,-1.398 3.6,-2.426c0.967,-0.714 1.19,-1.068 1.88,-0.615c0.875,0.574 1.963,1.129 2.33,1.342c2.343,1.364 2.498,1.069 2.645,1.25c0.009,0.011 0.036,0.415 0.028,0.432c-0.033,0.077 -0.482,0.323 -0.526,0.347c-0.294,0.161 -1.619,1.168 -1.758,1.273c-0.457,0.347 -0.574,0.41 -0.885,0.632c-13.558,9.67 -31.74,18.093 -33.505,18.859c-4.44,1.925 -4.408,1.995 -4.794,2.162c-0.798,0.345 -3.169,1.442 -4.566,1.984c-2.088,0.81 -2.124,1.067 -3.266,0.659c-1.915,-0.684 -7.067,-2.346 -8.117,-2.744c-0.391,-0.148 -9.037,-3.28 -9.934,-3.627c-0.363,-0.14 -3.686,-1.423 -4.527,-1.781c-5.78,-2.457 -15.628,-6.297 -26.757,-12.421c-10.912,-6.005 -13.159,-8.581 -13.922,-8.574c-0.312,0.003 -0.309,0.033 -3.546,1.615c-5.456,2.667 -10.338,2.864 -15.734,3.437c-0.553,0.059 -6.649,0.707 -6.909,0.746c-2.644,0.398 -3.833,0.429 -5.114,0.62c-1.203,0.18 -1.204,0.129 -2.413,0.298c-0.266,0.037 -1.89,0.265 -3.339,0.383c-1.166,0.095 -1.231,-0.181 -1.741,-0.849c-1.966,-2.575 -1.848,-2.653 -3.451,-5.025c-1.335,-1.976 -1.535,-2.491 -1.948,-3.115c-0.117,-0.177 -2.45,-3.824 -2.872,-5.041c-0.088,-0.253 -0.184,-0.531 0.074,-3.341c0.358,-3.903 0.464,-3.89 0.494,-4.229c0.221,-2.503 0.281,-2.491 0.297,-2.708c0.207,-2.763 0.575,-4.18 0.6,-7.822c0.034,-4.955 -1.57,-13.296 2.57,-21.963c0.625,-1.308 2.047,-3.791 3.362,-5.684c3.665,-5.274 5.114,-6.129 5.37,-7.278c0.138,-0.62 -0.553,-4.931 -0.005,-9.643c0.066,-0.567 0.427,-3.665 1.849,-6.898c0.918,-2.086 1.667,-3.211 2.201,-4.034c0.457,-0.704 3.013,-4.642 7.274,-7.566c5.439,-3.733 9.132,-4.553 12.458,-5.185c1.977,-0.376 7.473,-0.793 8.711,-0.806c1.537,-0.016 1.546,-0.121 3.635,-1.382c1.462,-0.883 7.393,-3.773 8.042,-4.089c2.848,-1.388 2.889,-1.291 5.762,-2.634c1.645,-0.769 1.778,-0.73 1.947,-1.416c1.235,-5.025 1.251,-5.018 1.342,-5.459c0.53,-2.568 0.856,-3.298 1.203,-4.82c0.585,-2.566 0.656,-2.545 1.257,-5.108c0.328,-1.397 0.74,-2.648 0.98,-3.594c0.711,-2.807 0.743,-2.794 0.803,-3.038c0.827,-3.325 3.244,-11.181 3.546,-12.074c1.623,-4.791 1.481,-4.96 1.901,-5.087c0.138,-0.041 0.161,-0.048 1.792,0.141c4.179,0.484 4.203,0.307 4.543,0.44c0.403,0.157 0.287,1.039 0.286,1.829c-0.024,25.179 -0.002,29.647 0.011,32.225c0.006,1.229 0.065,13.128 0.044,15.36c-0.051,5.272 0.036,5.272 0.009,5.73c-0.002,0.042 -0.02,0.341 -0.289,0.432c-0.328,0.112 -1.445,-0.166 -3.092,-0.373c-2.767,-0.348 -2.758,-0.376 -2.999,-0.4c-2.266,-0.222 -5.447,-0.778 -6.921,-0.946c-6.277,-0.714 -6.265,-0.782 -7.227,-0.902c-0.362,-0.045 -4.047,-0.505 -4.525,-0.553c-1.208,-0.122 -1.203,-0.134 -2.413,-0.267c-3.836,-0.42 -3.809,-0.679 -6.625,-0.75c-1.922,-0.048 -6.569,0.617 -6.643,0.629c-3.66,0.605 -4.977,0.738 -8.317,2.961c-0.218,0.145 -2.435,1.979 -3.277,2.991c-3.346,4.024 -4.107,6.733 -4.584,8.333c-0.234,0.784 -1.403,4.708 -0.353,10.217c0.829,4.347 1.288,5.369 1.578,6.3c0.881,2.837 0.977,2.805 1.036,3.056c0.161,0.68 -0.862,0.606 -2.931,1.189c-0.338,0.095 -3.365,0.949 -4.23,1.149c-0.388,0.09 -4.167,0.963 -4.818,1.227c-1.055,0.427 -3.55,4.519 -3.761,4.927c-1.41,2.72 -2.683,5.555 -2.781,10.465c-0.149,7.457 0.398,8.526 -0.522,11.699c-0.531,1.833 -0.464,1.846 -0.981,3.681c-1.065,3.782 -2.142,9.904 -1.763,11.086c0.099,0.309 0.181,0.566 2.216,3.4c1.068,1.488 1.251,1.993 2.185,2.031c1.816,0.074 1.809,0.104 3.619,0.267c0.736,0.066 0.821,0.348 3.854,-0.97c4.826,-2.098 4.858,-2.008 9.709,-4.052c1.315,-0.554 1.32,-0.53 2.635,-1.078c2.856,-1.191 2.842,-1.221 3.091,-1.322c8.233,-3.342 8.507,-3.638 12.048,-5.112c6.79,-2.827 11.878,-5.294 12.949,-5.73c2.521,-1.025 6.542,-3.264 6.621,-3.293c0.505,-0.181 0.665,0.158 0.295,0.541c-0.24,0.249 -4.374,2.515 -6.379,3.84c-1.379,0.911 -4.014,2.484 -4.804,3.036c-1.126,0.786 -5.157,3.179 -5.621,3.468c-3.415,2.127 -9.635,5.77 -9.75,5.845c-0.194,0.127 -2.968,1.731 -3.819,2.264c-2.547,1.593 -4.811,2.663 -4.817,2.672c-0.029,0.045 -0.033,0.461 -0.009,0.484c0.111,0.105 0.789,-0.072 0.856,-0.089c1.387,-0.361 3.781,-0.528 4.832,-0.658c8.993,-1.109 9.148,-0.759 13.211,-2.854c2.531,-1.306 7.126,-4.325 7.485,-4.571c4.249,-2.913 4.276,-2.873 4.638,-3.136c1.641,-1.196 5.701,-3.97 6.032,-4.201c0.4,-0.279 3.969,-2.769 4.993,-3.501c3.699,-2.642 3.719,-2.605 4.031,-2.847c0.949,-0.736 3.77,-2.704 8.123,-5.727c3.722,-2.585 3.605,-2.746 3.948,-2.939c0.519,-0.292 3.339,-0.031 6.261,-0.393c4.678,-0.58 6.482,-0.499 10.287,-2.33c2.858,-1.375 4.181,-2.2 4.53,-2.418c1.588,-0.99 1.685,-0.78 3.549,-0.79c0.954,-0.005 1.452,-0.945 1.525,-1.115c0.723,-1.687 -0.665,-3.562 -0.866,-4.536c-0.321,-1.557 2.238,-2.746 0.624,-4.864c-1.159,-1.52 -1.678,-1.759 -1.562,-2.349c0.077,-0.39 1.61,-1.787 1.827,-2.705c0.06,-0.255 0.527,-0.718 -2.241,-2.584c-3.175,-2.14 -2.612,-2.749 -2.352,-2.895c0.054,-0.03 3.998,-1.366 4.532,-1.524c1.564,-0.464 6.069,-2.123 6.657,-2.309c3.844,-1.219 4.48,-1.583 6.579,-2.252c0.486,-0.155 3.77,-1.201 6.058,-2.002c2.098,-0.734 1.182,-2.551 0.843,-2.955c-0.613,-0.731 -2.231,0.056 -4.458,0.537c-1.635,0.353 -4.833,1.226 -5.098,1.291c-3.194,0.785 -3.19,0.772 -6.37,1.629c-10.185,2.745 -10.208,2.654 -11.087,2.915c-2.271,0.676 -3.113,0.81 -8.459,2.32c-1.372,0.387 -2.592,0.523 -3.286,0.707c-1.034,0.275 -1.187,0.158 -2.1,1.124c-0.905,0.958 -9.036,11.052 -10.675,12.509c-1.148,1.021 -5.233,2.344 -7.094,3.204c-2.84,1.313 -17.613,6.837 -19.582,7.54c-4.382,1.564 -5.186,2.033 -7.568,2.257c-2.643,0.249 -2.627,0.334 -3.902,0.442c-0.458,0.039 -3.764,0.319 -5.711,0.626c-4.399,0.694 -5.783,0.834 -6.943,1.106c-4.059,0.952 -6.309,1.588 -10.214,3.95c-3.316,2.006 -4.575,3.443 -4.856,3.505c-0.12,0.027 -0.422,-0.235 -0.257,-0.528c0.108,-0.192 0.267,-0.35 0.404,-0.522c2.316,-2.908 2.311,-2.907 2.528,-3.146c2.169,-2.377 3.451,-3.151 4.914,-4.093c4.687,-3.018 15.22,-3.656 18.627,-3.945c2.08,-0.176 2.092,-0.139 2.432,-0.305c0.543,-0.266 1.956,-2.446 2.423,-3.341c3.988,-7.642 1.642,-13.533 1.123,-14.141c-0.684,-0.8 -3.495,-1.968 -3.9,-2.088c-0.476,-0.141 -0.644,-0.092 -0.928,-0.32c-0.045,-0.036 -0.142,-0.038 -0.142,-0.095c-0.005,-0.397 0.738,-0.475 0.814,-0.483c1.186,-0.125 6.826,-1.698 7.23,-1.793c0.83,-0.195 3.06,-0.916 3.283,-0.868c0.406,0.087 0.38,0.147 0.655,0.453c1.57,1.742 1.545,1.758 3.19,3.431c1.014,1.031 4.346,4.61 4.825,5.11c5.345,5.589 5.553,6.231 6.088,6.159c0.152,-0.02 3.093,-1.207 3.36,-1.315c4.629,-1.868 4.66,-1.788 5.062,-1.952c2.315,-0.944 2.246,-1.112 3.868,-3.017c5.359,-6.298 5.291,-6.352 5.762,-6.895c0.46,-0.53 3.079,-3.699 3.158,-3.787c1.42,-1.576 1.741,-1.349 5.903,-2.217c0.39,-0.081 0.384,-0.086 6.034,-1.461c2.485,-0.605 2.46,-0.681 3.323,-0.854c1.172,-0.236 5.077,-1.337 6.013,-1.556c2.754,-0.644 2.736,-0.707 2.975,-0.762c4.193,-0.962 4.168,-1.06 4.533,-1.139c3.798,-0.822 3.762,-0.953 5.747,-1.399c2.153,-0.484 5.437,-1.345 6.321,-1.503c1.922,-0.342 3.174,-0.602 4.764,1.188c0.495,0.557 0.836,3.898 0.59,4.454c-0.54,1.22 -0.917,1.686 -2.301,2.524c-0.64,0.388 -8.4,3.088 -15.997,5.977c-2.803,1.066 -2.822,1.01 -3.062,1.111c-0.434,0.184 -0.19,0.532 -0.162,0.571c0.016,0.022 1.189,0.736 1.716,1.272c2.446,2.489 0.654,5.016 0.374,5.484c-0.529,0.884 -0.273,1.137 0.164,2.082c1.375,2.968 -0.478,4.502 -0.707,5.428c-0.235,0.95 1.567,3.08 -0.486,6.27c-2.786,4.331 -6.578,4.001 -7.49,4.014c-1.082,0.015 -1.416,0.662 -3.003,1.449c-6.531,3.238 -12.191,3.162 -15.07,3.12c-2.02,-0.029 -2.115,-0.216 -2.804,0.363c-4.926,4.137 -5.77,4.498 -7.543,6.017c-0.647,0.555 -0.427,0.831 0.945,2.006c3.804,3.255 6.734,5.698 9.074,6.617c1.376,0.541 5.692,0.778 8.47,0.288c4.221,-0.745 6.69,-1.562 7.257,-1.75c0.257,-0.085 4.411,-0.779 4.992,-7.953c0.159,-1.959 0.173,-1.956 0.041,-3.916c-0.056,-0.835 0.512,-0.477 0.516,-0.472c0.09,0.13 0.131,0.288 0.193,0.434c0.031,0.073 0.049,0.152 0.084,0.223c0.587,1.166 0.641,1.132 1.218,2.307c1.718,3.501 1.122,7.066 1.12,7.156c-0.001,0.051 -0.009,0.386 0.241,0.587c0.263,0.211 3.287,1.09 5.365,1.931c4.374,1.771 4.418,1.652 4.795,1.815c0.405,0.175 0.319,0.419 0.305,0.461c-0.094,0.266 -0.497,0.22 -0.543,0.214c-2.402,-0.278 -2.399,-0.28 -4.817,-0.395c-2.698,-0.128 -5.145,-0.401 -5.416,-0.401c-0.524,0.001 -0.54,0.544 -0.542,0.609c-0.062,2.118 -0.078,7.754 -0.08,8.428c-0.013,4.578 0.077,4.783 0.464,5.326c1.13,1.587 6.465,2.647 7.352,2.851Z" style="fill:#020202;"/><path d="M92.022,40.535c-0.01,3.82 1.622,4.11 4.648,7.295c1.079,1.135 2.1,2.192 3.623,5.085c0.873,1.659 1.357,3.632 1.602,3.851c0.395,0.352 2.762,0.036 5.997,0.181c0.973,0.043 0.764,-0.387 0.816,-1.36c0.231,-4.256 1.367,-6.118 1.899,-7.22c0.203,-0.42 1.508,-2.418 1.894,-2.948c1.205,-1.652 1.403,-2.102 1.055,-3.972c-0.589,-3.169 -4.648,-9.544 -4.581,-11.159c0.075,-1.821 2.705,-3.72 4.953,-2.123c0.378,0.269 0.89,1.083 0.955,1.186c0.02,0.032 2.765,5.504 2.896,5.784c0.612,1.31 0.956,1.963 1.49,3.613c0.178,0.55 0.134,0.799 0.696,0.656c0.084,-0.021 1.927,-1.573 2.659,-2.502c1.326,-1.685 1.102,-2.745 0.682,-5.113c-0.146,-0.825 -1.148,-4.08 -2.936,-8.181c-0.224,-0.513 -1.078,-2.665 -1.17,-2.898c-1.008,-2.539 -1.265,-3.243 -0.18,-4.584c0.753,-0.93 3.479,-1.855 4.83,0.614c1.224,2.237 2.063,4.967 3.872,9.354c0.725,1.756 0.871,3.441 1.005,3.527c0.049,0.031 0.385,0.001 0.427,-0.038c0.008,-0.008 0.966,-2.701 1.084,-3.19c1.884,-7.827 -0.063,-12.711 0.801,-14.494c0.794,-1.639 3.686,-2.67 5.366,-0.802c0.728,0.809 0.79,1.952 1.003,5.943c0.146,2.739 0.644,11.414 -4.322,18.606c-2.426,3.515 -3.495,4.173 -5.231,5.881c-3.782,3.722 -9.876,6.549 -11.348,11.317c-0.005,0.017 -0.436,1.053 -0.736,3.949c-0.044,0.425 -0.18,0.623 0.245,0.628c0.371,0.004 0.281,-0.151 0.445,-0.476c0.016,-0.031 0.752,-1.393 1.493,-2.461c0.096,-0.138 1.219,-1.354 1.773,-1.788c1.468,-1.152 2.812,-1.715 6.853,-3.065c0.832,-0.278 2.771,-0.822 3.013,-0.89c1.243,-0.349 1.239,-0.405 1.477,-0.358c0.43,0.085 0.183,0.648 -0.231,3.003c-0.433,2.464 -1.031,3.906 -1.226,4.519c-1.851,5.829 -5.764,7.248 -5.918,7.606c-0.126,0.293 0.296,0.6 0.343,0.634c2.359,1.714 2.557,2.04 4.045,3.171c0.984,0.748 0.805,0.979 0.297,3.036c-0.343,1.388 -0.599,1.573 0.412,2.583c1.815,1.813 1.817,1.803 3.699,3.539c0.401,0.369 0.378,0.392 4.911,4.718c0.881,0.84 2.748,2.519 2.989,2.736c2.056,1.848 2.13,1.878 2.108,2.381c-0.013,0.304 -0.016,0.369 -1.293,3.572c-0.096,0.241 -0.612,1.536 -1.242,2.991c-0.5,1.156 -1.03,1.654 -1.153,1.769c-0.476,0.447 -0.667,0.426 -2.294,2.525c-1.421,1.833 -1.913,1.934 -2.142,1.981c-0.282,0.058 -0.285,-0.002 -3.59,0.226c-1.963,0.136 -5.383,-0.834 -9.932,-1.43c-3.624,-0.475 -3.887,-0.813 -4.051,-0.244c-0.125,0.433 0.401,3.713 0.833,9.382c0.104,1.36 0.19,1.347 0.291,2.711c0.018,0.238 0.007,0.237 0.528,4.222c0.142,1.088 0.401,1.026 2.723,2.032c1.046,0.453 4.628,2.115 5.03,2.301c0.293,0.136 0.271,0.173 3.62,1.794c1.773,0.858 1.725,1.047 3.677,1.28c6.221,0.744 8.759,1.228 12.952,3.707c1.047,0.619 0.822,-0.413 0.814,-0.871c-0.074,-3.999 0.026,-3.997 -0.036,-49.995c-0.015,-11.093 -0.091,-11.104 0.119,-12.045c0.604,-2.701 2.888,-4.905 5.71,-5.148c2.206,-0.19 5.448,0.08 5.79,-0.173c0.448,-0.33 0.223,-0.458 0.271,-3.113c0.023,-1.286 0.219,-1.699 0.851,-2.722c1.22,-1.975 4.89,-2.68 6.851,-0.221c0.748,0.938 0.855,2.148 0.872,2.348c0.077,0.87 -0.052,3.312 0.151,3.587c0.27,0.367 1.802,0.177 6.6,0.244c1.472,0.021 2.102,0.191 2.255,-0.492c0.327,-1.463 -0.98,-4.622 2.212,-6.741c1.181,-0.785 4.317,-0.933 5.727,1.611c0.538,0.971 0.548,2.467 0.55,2.686c0.013,1.854 -0.12,2.675 0.327,2.848c0.386,0.15 4.397,-0.015 7.603,0.082c1.023,0.031 1.437,0.2 1.427,-0.822c-0.026,-2.578 -0.336,-4.22 1.466,-5.85c0.107,-0.097 1.731,-1.736 4.32,-0.746c1.097,0.42 2.205,1.511 2.483,2.662c0.555,2.297 -0.177,4.499 0.578,4.737c0.442,0.139 2.478,-0.112 7.795,0.037c1.061,0.03 0.854,-0.585 0.853,-2.046c-0.002,-1.677 -0.191,-3.269 1.805,-4.885c2.147,-1.74 6.647,-0.841 6.784,3.678c0.044,1.46 -0.084,2.776 0.161,3.042c0.187,0.204 0.583,0.206 0.637,0.207c4.825,0.032 6.451,-0.536 9.056,1.241c0.376,0.257 2.462,1.922 2.724,4.846c0.107,1.193 0.103,50.096 0.093,50.609c-0.016,0.909 -0.427,0.662 -1.327,0.541c-3.943,-0.528 -3.994,-0.175 -4.46,-0.385c-0.369,-0.166 -0.265,-0.476 -0.26,-4.984c0.026,-23.549 0.006,-30.203 -0.003,-32.829c-0.003,-1.035 -0.521,-0.857 -2.211,-0.854c-24.924,0.054 -73.502,-0.043 -73.758,0.066c-0.045,0.019 -0.32,0.137 -0.37,0.481c-0.045,0.31 0.059,0.309 0.03,3.922c-0.043,5.31 0.04,26.67 -0.025,37.646c-0.017,2.879 -0.007,14.131 -0.006,15.36c0.001,1.431 0.005,1.427 0.075,2.11c0.098,0.951 -0.25,0.823 -0.312,0.794c-0.319,-0.145 -0.369,-0.593 -1.263,-1.672c-5.13,-6.188 -11.635,-7.649 -13.793,-8.247c-0.31,-0.086 -1.524,-0.422 -3.909,-0.948c-0.642,-0.142 -0.659,-0.083 -3.927,0.805c-0.059,0.016 -6.627,2.01 -7.203,2.185c-0.269,0.082 -0.248,0.133 -3.342,1.106c-0.835,0.263 -1.238,0.528 -1.283,-0.343c-0.065,-1.24 -0.018,-1.24 -0.257,-3.017c-0.017,-0.124 -0.324,-4.027 -0.415,-5.717c-0.08,-1.483 -0.521,-5.536 -0.693,-8.146c-0.133,-2.004 -0.144,-2.174 -0.72,-2.654c-0.197,-0.165 -1.972,-1.451 -2.087,-1.532c-0.311,-0.219 -0.284,-0.244 -3.795,-2.861c-0.307,-0.229 -1.539,-1.195 -1.672,-1.299c-0.326,-0.256 -0.334,-0.241 -4.094,-3.171c-1.226,-0.955 -2.91,-2.327 -3.687,-2.917c-1.918,-1.456 -1.64,-1.821 -2.635,-3.962c-2.032,-4.374 -1.87,-4.437 -2.432,-5.709c-0.927,-2.095 -1.061,-2.105 -0.924,-2.383c0.275,-0.555 0.386,0.03 1.672,1.595c0.64,0.778 3.106,3.52 4.028,4.121c1.792,1.17 1.915,0.928 7.244,1.706c0.396,0.058 7.585,0.829 15.652,2.179c3,0.502 6.409,1.473 8.427,1.562c3.528,0.157 4.141,-0.254 4.437,-0.452c0.91,-0.61 0.925,-0.697 0.941,-0.794c0.008,-0.047 0.051,-0.305 -0.311,-0.508c-1.244,-0.699 -1.273,-0.651 -2.416,-1.504c-2.536,-1.893 -2.654,-1.931 -2.691,-2.793c-0.013,-0.306 0.029,-4.175 0.034,-4.218c0.091,-0.828 1.02,-0.661 1.512,-0.661c5.248,-0.009 5.242,0.013 6.328,0.089c0.054,0.004 0.624,0.043 0.591,-0.329c-0.021,-0.239 -0.48,-0.372 -1.155,-0.954c-0.374,-0.323 -2.858,-2.47 -4.618,-4.103c-3.438,-3.192 -3.48,-3.142 -6.789,-6.467c-0.976,-0.98 -1.25,-1.037 -1.041,-2.042c0.509,-2.451 0.98,-2.575 0.336,-3.276c-0.362,-0.393 -2.182,-1.59 -3.551,-2.78c-0.587,-0.511 -5.364,-4.079 -5.723,-4.248c-0.784,-0.367 -1.123,-0.136 -6.665,-0.199c-0.769,-0.009 -12.735,-0.029 -13.25,0.009c-1.717,0.126 -2.294,2.348 -3.249,1.406c-0.447,-0.441 -1.625,-2.222 -4.228,-4.514c-2.395,-2.109 -4.371,-2.734 -5.782,-3.233c-0.51,-0.18 -3.793,-1.11 -8.116,-1.614c-4.405,-0.514 -4.95,-0.926 -4.813,-0.217c0.063,0.325 0.5,0.138 3.013,1.171c6.491,2.668 8.494,3.155 10.471,5.504c1.012,1.202 4.748,6.758 6.157,8.037c0.726,0.658 -0.308,0.702 -0.372,0.704c-3.935,0.164 -10.079,1.882 -15.938,-2.208c-2.823,-1.971 -4.326,-4.607 -6.344,-9.292c-1.218,-2.827 -2.466,-7.117 -2.458,-7.226c0.028,-0.385 0.571,-0.388 0.63,-0.388c1.037,-0.006 6.757,0.2 9.954,0.628c8.33,1.115 12.294,2.774 16.584,6.355c1.862,1.555 1.785,1.727 2.077,1.704c0.494,-0.038 0.256,-0.687 0.234,-0.745c-1.441,-3.925 -3.298,-5.462 -5.921,-7.298c-1.101,-0.771 -4.505,-2.32 -6.641,-3.013c-0.659,-0.214 -8.875,-3.278 -10.214,-3.955c-1.512,-0.765 -3.318,-1.21 -7.956,-4.301c-2.53,-1.687 -4.033,-3.205 -4.348,-3.523c-1.777,-1.795 -2.215,-2.275 -3.902,-4.801c-2.118,-3.17 -3.052,-6.529 -3.22,-7.132c-0.158,-0.57 -0.964,-3.464 -1.41,-7.257c-0.334,-2.836 -0.249,-3.312 -0.199,-3.595c0.364,-2.062 4.536,-3.461 6.66,-0.405c0.764,1.099 0.298,2.184 1.143,6.394c0.721,3.592 2.207,6.351 2.484,6.865c0.458,0.85 0.908,1.503 0.994,1.628c2.261,3.282 4.537,4.914 4.646,4.999c0.966,0.749 1.024,0.657 2.009,1.381c0.501,0.369 0.783,0.216 0.703,-0.403c-0.169,-1.315 -0.357,-2.783 -0.298,-16.565c0.003,-0.676 -0.245,-2.458 1.765,-3.578c1.539,-0.858 4.936,-0.469 5.083,2.977c0.195,4.554 -0.469,15.593 0.609,18.977c0.907,2.847 2.541,3.377 3.372,3.817c0.463,0.245 5.992,2.427 6.268,2.428c0.55,0.003 0.206,-0.893 0.595,-2.939c0.377,-1.979 0.48,-1.95 0.937,-3.908c0.044,-0.19 1.1,-3.966 1.561,-4.784c1.606,-2.852 5.856,-1.356 5.994,1.163c0.079,1.447 -0.865,3.293 -1.61,7.218c-0.286,1.507 -0.334,1.498 -0.446,3.027Z" style="fill:#020202;"/><path d="M217.274,135.121c2.336,-5.605 2.308,-5.616 2.514,-6.103c0.763,-1.804 0.659,-1.836 0.928,-2.729c0.101,-0.334 0.043,-0.476 0.389,-0.445c0.3,0.027 0.19,0.165 0.359,0.806c0.225,0.854 2.148,3.691 6.349,5.931c6.181,3.296 10.648,3.344 13.2,3.252c3.334,-0.12 4.37,-0.914 4.502,-0.919c0.069,-0.002 0.512,0.098 -0.171,0.84c-0.847,0.922 -2.734,3.84 -2.774,3.899c-1.03,1.516 -2.616,4.104 -2.698,4.225c-0.561,0.833 -0.512,0.856 -1.072,1.696c-1.81,2.71 -1.681,2.786 -3.403,5.556c-1.163,1.87 -1.398,2.622 -2.021,3.463c-0.379,0.511 -0.92,0.225 -2.012,0.153c-6.633,-0.44 -8.982,-0.951 -11.106,0.001c-4.367,1.957 -3.258,5.565 -3.252,5.646c0.046,0.617 -0.58,0.668 -0.669,0.695c-0.591,0.177 -0.616,0.225 -1.241,0.488c-1.608,0.676 -3.576,2.596 -2.766,5.465c0.282,0.998 0.258,1.118 -0.548,1.775c-0.178,0.145 -1.152,0.939 -1.591,2.391c-0.742,2.452 0.968,4.064 0.977,4.549c0.009,0.483 -1.208,1.878 -0.922,3.62c0.484,2.951 3.176,4.418 3.589,4.643c1.722,0.938 4.255,1.719 4.636,1.837c0.906,0.279 0.43,0.776 0.199,1.322c-0.356,0.839 -2.57,5.77 -3.113,7.013c-1.212,2.772 -1.169,2.785 -2.17,5.096c-1.416,3.267 -1.756,4.362 -2.434,6.011c-1.159,2.82 -1.13,2.825 -2.204,5.685c-1.667,4.438 -1.618,4.45 -1.778,4.829c-1.306,3.091 -0.896,4.315 -2.084,4.104c-1.754,-0.312 -12.979,-1.961 -24.179,-11.249c-0.79,-0.655 -0.994,-0.576 -0.937,-1.013c0.045,-0.339 0.977,-0.372 2.28,-1.377c0.753,-0.581 1.84,-1.294 3.923,-3.955c0.715,-0.913 1.287,-2.034 1.511,-2.42c2.17,-3.736 4.163,-8.378 4.778,-9.665c1.177,-2.465 1.139,-2.479 1.245,-2.691c0.605,-1.208 1.127,-2.555 1.203,-2.713c1.085,-2.247 1.039,-2.264 2.043,-4.548c0.204,-0.464 0.263,-0.435 2.616,-5.763c1.309,-2.963 1.286,-2.969 1.402,-3.225c0.917,-2.03 0.902,-2.036 0.992,-2.207c0.57,-1.081 2.381,-5.534 2.575,-5.944c1.257,-2.648 1.08,-2.756 1.42,-3.059c0.699,-0.62 1.009,0.563 4.223,-0.599c1.527,-0.552 2.931,-2.282 3.282,-3.616c0.595,-2.263 -0.279,-3.489 -1.45,-4.534c-0.377,-0.336 -0.401,-0.297 -0.528,-0.4c-0.798,-0.648 -0.159,-1.081 1.714,-5.597c3.234,-7.797 3.297,-7.77 3.559,-8.455c0.054,-0.142 0.061,-0.137 0.712,-1.764Z" style="fill:#fff;"/><path d="M223.209,124.568c-0.041,-0.175 -0.509,-1.598 0.2,-2.516c1.487,-1.927 4.714,-1.819 6.156,-1.805c3.065,0.03 8.123,1.761 11.387,3.513c1.633,0.876 4.816,3.04 6.221,5.54c1.986,3.532 -4.599,4.03 -5.255,4.079c-6.257,0.473 -10.528,-1.718 -11.823,-2.354c-5.329,-2.618 -6.266,-5.03 -6.887,-6.457Z" style="fill:#f2f3f1;"/><path d="M75.686,213.09c0.493,1.273 0.297,1.317 0.45,5.136c0.038,0.944 -0.025,1.305 0.072,2.406c0.005,0.051 0.049,0.558 -0.245,0.596c-0.214,0.027 -0.274,0.035 -2.432,-1.157c-0.264,-0.146 -0.277,-0.12 -3.318,-1.795c-1.837,-1.012 -1.838,-0.997 -3.633,-2.077c-2.134,-1.285 -2.162,-1.228 -4.267,-2.646c-1.261,-0.85 -1.872,-1.207 -2.039,-1.305c-0.046,-0.027 -0.54,-0.316 -0.568,-0.353c-0.43,-0.563 0.122,-0.519 2.051,-1.88c1.4,-0.988 6.848,-5.131 6.95,-5.149c0.693,-0.121 0.966,0.862 3.538,3.813c0.104,0.119 2.119,2.663 2.556,3.187c0.408,0.489 0.819,1.124 0.884,1.226Z" style="fill:#fff;"/><path d="M242.186,130.598c-0.252,-0.37 -0.795,-1.363 -2.109,-2.39c-0.929,-0.726 -2.114,-1.289 -2.306,-1.391c-3.463,-1.832 -6.799,-2.036 -7.007,-2.044c-1.378,-0.051 -0.919,0.583 -0.859,0.644c0.057,0.057 0.475,0.149 0.518,0.158c5.005,1.099 7.642,2.885 7.939,3.109c1.827,1.377 1.786,1.974 1.77,2.199c-0.069,0.986 -1.821,0.85 -1.834,0.85c-4.3,-0.039 -8.955,-2.387 -10.582,-3.816c-0.64,-0.562 -2.484,-2.082 -2.553,-3.67c-0.121,-2.737 4.064,-2.432 5.003,-2.391c3.717,0.16 8.698,2.129 11.807,4.419c5.579,4.109 1.635,5.147 1.448,5.216c-0.844,0.313 -0.778,-0.117 -1.234,-0.895Z" style="fill:#040403;"/><path d="M219.034,163.602c2.344,0.24 8.432,1.409 12.028,1.957c2.022,0.308 2.961,0.573 3.31,2.069c0.067,0.286 0.453,1.591 -0.922,2.673c-0.735,0.578 -0.842,0.578 -5.072,-0.087c-0.008,-0.001 -11.158,-2.075 -12.028,-2.653c-1.735,-1.152 -0.489,-4.231 1.761,-4.059c0.619,0.047 0.813,0.087 0.924,0.099Z" style="fill:#fff;"/><path d="M231.278,174.564c0.004,0.074 0.408,2.255 -1.404,3.021c-0.655,0.277 -1.067,0.051 -1.805,-0.08c-1.305,-0.232 -12.052,-2.519 -13.569,-3.243c-2.078,-0.992 -1.263,-4.074 0.91,-3.953c0.728,0.041 14.505,2.952 15.026,3.139c0.808,0.289 0.712,0.626 0.842,1.118Z" style="fill:#fff;"/><path d="M180.376,141.424c-0.024,0.762 0.051,0.793 -0.112,0.975c-0.225,0.25 -0.277,0.223 -3.707,0.231c-4.371,0.011 -4.523,0.061 -4.671,-0.358c-0.015,-0.042 -0.047,-0.044 -0.061,-5.668c-0.005,-2.073 -0.071,-2.43 0.264,-2.627c0.267,-0.157 0.283,-0.13 3.865,-0.16c3.883,-0.033 3.908,-0.065 4.183,0.126c0.303,0.211 0.245,0.558 0.241,2.963c-0.001,1.506 -0.001,3.013 -0.002,4.519Z" style="fill:#040403;"/><path d="M193.6,141.728c-0.019,0.473 0.044,0.495 -0.091,0.656c-0.26,0.309 -0.332,0.243 -3.701,0.249c-4.331,0.007 -4.338,-0.004 -4.483,-0.073c-0.484,-0.232 -0.25,-0.423 -0.301,-7.46c-0.001,-0.071 -0.006,-0.781 0.027,-0.882c0.145,-0.447 0.822,-0.344 2.95,-0.365c0.386,-0.004 4.541,-0.045 4.823,-0.034c0.907,0.035 0.72,0.568 0.72,2.184c0.001,2.524 0,4.656 0.056,5.725Z" style="fill:#020202;"/><path d="M211.3,112.511c0,-0.337 0.006,-4.124 0.01,-4.212c0.035,-0.687 0.389,-0.773 0.786,-0.761c1.208,0.034 1.203,0.029 2.409,0.03c5.005,0.006 5.089,-0.052 5.271,0.221c0.11,0.164 0.11,1.02 0.11,1.109c0.001,4.606 0.032,6.338 0.012,6.624c-0.061,0.862 -0.58,0.707 -2.684,0.702c-5.124,-0.011 -5.129,0.077 -5.447,-0.015c-0.54,-0.156 -0.436,-0.51 -0.468,-3.697Z" style="fill:#020202;"/><path d="M158.702,140.822c-0.004,-6.582 -0.055,-6.64 0.166,-6.841c0.175,-0.159 0.756,-0.158 0.823,-0.158c6.588,0.013 6.934,-0.055 7.204,0.11c0.372,0.228 0.231,0.353 0.263,6.586c0.008,1.585 0.28,2.121 -0.841,2.094c-2.515,-0.06 -4.96,0.009 -6.626,0.002c-1.258,-0.005 -0.988,-0.538 -0.989,-1.794Z" style="fill:#030302;"/><path d="M206.723,128.472c-0.025,0.518 0.103,0.574 -0.155,0.798c-0.219,0.189 -0.898,0.074 -7.122,0.114c-0.953,0.006 -1.256,0.049 -1.276,-0.907c-0.012,-0.554 0.015,-0.554 -0.017,-6.931c-0,-0.062 -0.003,-0.601 0.202,-0.754c0.266,-0.197 0.986,-0.098 5.006,-0.135c3.033,-0.028 3.126,-0.003 3.255,0.312c0.133,0.325 -0.072,3.874 0.107,7.503Z" style="fill:#020202;"/><path d="M180.374,127.57c0.007,0.806 0.063,1.381 -0.12,1.574c-0.23,0.242 -0.28,0.213 -3.095,0.212c-0.19,-0 -4.742,-0.016 -4.811,-0.026c-0.637,-0.099 -0.529,-0.815 -0.529,-0.856c0.035,-6.647 -0.043,-6.643 0.007,-7.219c0.062,-0.709 0.503,-0.553 4.128,-0.572c3.843,-0.021 4.24,-0.086 4.38,0.313c0.053,0.152 0.028,0.156 0.04,6.575Z" style="fill:#050503;"/><path d="M193.555,128.472c-0.01,0.098 0.031,0.196 0.021,0.294c-0.065,0.63 -0.528,0.621 -0.755,0.625c-0.679,0.012 -6.373,-0.013 -6.928,-0.015c-1.037,-0.004 -0.834,-0.678 -0.836,-1.807c-0.006,-3.012 0.012,-3.006 -0.053,-6.023c-0.022,-1.038 0.487,-0.826 2.094,-0.853c2.246,-0.037 5.708,-0.059 6.009,0.007c0.626,0.136 0.413,1.205 0.452,2.352c0.041,1.211 0.004,1.205 -0.014,2.413c-0.023,1.504 -0.002,2.157 0.01,3.007Z" style="fill:#030303;"/><path d="M211.303,86.008c0.004,-3.326 -0.02,-3.323 -0.006,-3.612c0.025,-0.527 0.007,-0.63 0.517,-0.762c0.078,-0.02 5.59,-0.043 6.907,-0.043c1.039,-0 1.104,0.255 1.098,1.103c-0.045,6.371 0.038,6.372 0.004,6.924c-0.049,0.786 -0.313,0.702 -1.103,0.685c-2.675,-0.058 -6.701,0.036 -6.94,-0.021c-0.558,-0.134 -0.463,-0.457 -0.476,-4.273Z" style="fill:#040404;"/><path d="M193.527,89.32c-0.033,0.503 0.116,0.568 -0.18,0.823c-0.238,0.206 -0.288,0.108 -6.249,0.147c-1.344,0.009 -2.056,0.203 -2.085,-0.67c-0.024,-0.722 -0.014,-6.648 -0.013,-7.226c0.002,-0.979 0.47,-0.79 3.302,-0.784c3.407,0.008 4.783,-0.011 4.797,-0.007c0.487,0.164 0.428,0.277 0.427,0.789c-0.001,0.554 -0.007,5.619 0.001,6.927Z" style="fill:#040302;"/><path d="M211.297,101.368c0.016,-4.992 0.016,-4.99 0.011,-5.423c-0.012,-0.988 -0.203,-1.393 0.788,-1.402c0.217,-0.002 7.165,-0.001 7.217,0.002c0.514,0.028 0.537,0.448 0.54,0.507c0.01,0.197 -0.007,3.317 -0.008,3.605c-0.023,4.104 0.027,4.131 -0.115,4.29c-0.274,0.306 -0.616,0.215 -1.912,0.221c-6.019,0.029 -6.06,0.118 -6.275,-0.06c-0.312,-0.259 -0.245,-0.83 -0.245,-1.74Z" style="fill:#040403;"/><path d="M193.584,115.223c-0.034,0.357 0.155,0.963 -0.761,0.979c-2.23,0.041 -6.099,0.003 -6.629,-0.002c-0.922,-0.009 -1.149,-0.058 -1.156,-0.979c-0.005,-0.577 -0.055,-6.972 -0.005,-7.218c0.123,-0.614 0.665,-0.375 5.074,-0.435c2.851,-0.039 3.031,-0.105 3.286,0.15c0.203,0.203 0.141,0.664 0.154,5.998c0.002,0.757 0.002,0.751 0.037,1.508Z" style="fill:#030202;"/><path d="M167.129,127.872c0.005,0.442 0.081,1.047 -0.14,1.269c-0.203,0.205 -0.245,0.174 -3.684,0.199c-0.186,0.001 -3.662,0.015 -3.912,0.001c-0.745,-0.041 -0.696,-0.712 -0.7,-0.864c-0.021,-0.818 -0.04,-7.185 -0.031,-7.253c0.095,-0.695 0.395,-0.565 3.439,-0.562c4.406,0.005 4.422,-0.063 4.776,0.081c0.369,0.149 0.309,0.554 0.288,2.61c-0.019,1.862 -0.024,1.857 -0.036,4.519Z" style="fill:#040302;"/><path d="M158.664,99.561c-0.004,-1.512 -0.021,-1.506 -0.032,-3.013c-0.009,-1.289 -0.045,-1.801 0.483,-1.982c0.062,-0.021 0.058,-0.027 5.696,-0.02c1.602,0.002 2.331,-0.169 2.324,0.8c-0.05,6.646 0.006,6.645 -0.001,7.222c-0.001,0.049 -0.005,0.412 -0.246,0.558c-0.097,0.059 -0.102,0.085 -2.679,0.102c-4.723,0.031 -4.733,0.078 -5.125,-0.042c-0.504,-0.155 -0.418,-0.519 -0.421,-3.626Z" style="fill:#040403;"/><path d="M193.529,101.971c-0.015,0.205 0.014,0.412 -0.001,0.617c-0.052,0.687 -0.53,0.579 -2.816,0.58c-2.166,0 -3.373,-0.006 -4.819,0.016c-0.919,0.014 -0.877,-0.291 -0.879,-1.213c-0.001,-0.554 -0.015,-6.714 0.018,-6.919c0.105,-0.646 0.795,-0.468 3.273,-0.507c0.383,-0.006 4.574,-0.072 4.793,0.005c0.489,0.172 0.447,0.275 0.443,0.795c-0.026,3.314 -0.002,3.308 -0.01,6.627Z" style="fill:#040303;"/><path d="M205.168,116.226c-5.828,-0.019 -5.827,0.007 -6.332,-0.036c-0.804,-0.069 -0.646,-0.824 -0.66,-2.172c-0.005,-0.458 -0.034,-3.221 -0.032,-5.727c0,-0.063 0,-0.588 0.362,-0.695c0.326,-0.096 0.334,-0.049 4.253,-0.033c3.498,0.015 3.761,-0.08 3.87,0.441c0.083,0.4 0.023,0.404 0.03,5.109c0.003,2.325 0.171,2.852 -0.277,3.031c-0.456,0.183 -0.469,0.073 -1.215,0.081Z" style="fill:#020102;"/><path d="M173.545,116.233c-0.229,-0.003 -1.42,0.102 -1.616,-0.348c-0.168,-0.385 -0.075,-2.876 -0.096,-6.988c-0,-0.071 -0.004,-0.84 0.011,-0.881c0.018,-0.047 0.129,-0.346 0.474,-0.418c0.042,-0.009 7.332,-0.049 7.576,0.018c0.69,0.192 0.35,0.513 0.42,6.701c0.009,0.755 0.148,1.477 -0.174,1.77c-0.134,0.122 -0.16,0.148 -6.594,0.146Z" style="fill:#050303;"/><path d="M180.308,96.549c0.005,2.72 -0,5.143 0.025,5.724c0.047,1.084 -0.651,0.921 -1.668,0.932c-1.522,0.016 -5.893,0.006 -6.026,-0.004c-0.969,-0.072 -0.783,-0.664 -0.792,-2.736c-0.002,-0.433 -0.023,-5.364 -0.019,-5.411c0.047,-0.49 0.464,-0.515 0.523,-0.518c0.147,-0.009 5.808,0.028 6.313,0.032c0.476,0.003 1.26,-0.077 1.514,0.169c0.135,0.131 0.147,0.834 0.148,0.907c0.001,0.072 -0.001,0.067 -0.018,0.906Z" style="fill:#060405;"/><path d="M160.293,116.248c-0.356,-0.002 -1.396,0.127 -1.564,-0.403c-0.043,-0.135 -0.045,-0.851 -0.045,-0.925c-0.017,-6.109 -0.041,-6.104 -0.028,-6.635c0.002,-0.063 0.014,-0.57 0.409,-0.671c0.089,-0.023 0.853,-0.021 0.927,-0.021c2.945,0.006 6.513,-0.012 6.643,0.01c0.367,0.064 0.492,0.36 0.512,0.408c0.112,0.265 0.009,0.279 -0.008,3.595c-0.021,4.226 0.043,4.302 -0.229,4.506c-0.227,0.17 -0.261,0.085 -6.617,0.135Z" style="fill:#020101;"/><path d="M198.171,96.249c-0.003,-0.098 -0.03,-1.123 -0.009,-1.224c0.01,-0.049 0.068,-0.339 0.408,-0.476c0.071,-0.028 0.528,-0.02 0.573,-0.02c5.844,0.103 7.012,-0.102 7.287,0.137c0.316,0.275 0.217,0.856 0.213,1.28c-0.03,3.106 0.066,6.689 -0.026,6.902c-0.16,0.369 -0.496,0.33 -3.257,0.316c-4.617,-0.022 -4.621,0.02 -4.808,-0.027c-0.594,-0.149 -0.353,-0.429 -0.382,-6.889Z" style="fill:#050303;"/><path d="M198.159,89.321c0.022,-1.065 0.019,-1.061 0.019,-3.011c-0,-4.338 -0.043,-4.365 0.083,-4.502c0.313,-0.342 0.396,-0.165 2.089,-0.165c5.713,-0.001 5.731,-0.018 6.036,0.132c0.257,0.127 0.271,0.201 0.253,3.029c-0.031,5.008 0.007,5.041 -0.14,5.211c-0.29,0.337 -0.374,0.201 -4.643,0.248c-3.225,0.036 -3.627,0.145 -3.699,-0.632c-0.01,-0.103 0.011,-0.208 0.002,-0.311Z" style="fill:#020201;"/><path d="M236.425,160.11c0.007,0.066 0.395,1.254 -0.89,2.335c-0.654,0.55 -0.805,0.719 -5.951,-0.074c-1.818,-0.28 -1.806,-0.316 -3.627,-0.536c-0.366,-0.044 -3.441,-0.415 -4.534,-0.813c-2.232,-0.813 -1.144,-4.049 1.513,-4.069c2.964,-0.023 11.142,0.758 12.271,1.466c0.361,0.226 0.7,0.654 0.752,0.72c0.339,0.429 0.279,0.461 0.467,0.971Z" style="fill:#fff;"/><path d="M214.725,61.011c0.004,-6.933 -0.024,-6.934 0.042,-7.533c0.216,-1.976 2.515,-2.24 3.13,-0.324c0.15,0.467 0.138,0.475 0.139,7.857c0,1.214 -0.102,1.348 0.651,1.86c2.042,1.388 -0.12,4.508 -2.659,4.057c-2.433,-0.432 -3.183,-2.954 -1.995,-3.969c0.113,-0.097 0.247,-0.168 0.359,-0.266c0.435,-0.382 0.332,-1.534 0.334,-1.681Z" style="fill:#fff;"/><path d="M161.842,55.59c-0.005,-1.888 -0.111,-2.673 0.574,-3.297c0.625,-0.569 1.729,-0.628 2.355,0.31c0.32,0.478 0.336,0.913 0.407,9.01c0.01,1.143 0.405,1.079 0.744,1.327c0.033,0.024 1.443,1.015 0.216,2.674c-1.791,2.42 -5.144,1.232 -5.539,-0.988c-0.258,-1.451 1.036,-1.66 1.178,-2.413c0.067,-0.354 0.065,-6.092 0.065,-6.622Z" style="fill:#fff;"/><path d="M228.166,181.483c-0.009,0.09 0.086,1.248 -1.065,2.026c-0.877,0.594 -1.587,0.3 -4.154,-0.265c-0.485,-0.107 -1.588,-0.349 -5.992,-1.613c-3.534,-1.014 -3.88,-2.058 -3.646,-3.162c0.305,-1.433 1.409,-1.288 2.374,-1.076c0.388,0.085 0.375,0.131 4.815,1.203c2.272,0.549 2.274,0.514 4.553,1.049c2.624,0.616 2.77,0.8 2.924,0.993c0.241,0.303 0.138,0.342 0.191,0.843Z" style="fill:#fff;"/><path d="M179.355,55.891c-0.006,-2.119 -0.123,-2.86 0.549,-3.581c0.497,-0.533 1.701,-0.6 2.351,0.286c0.626,0.852 0.203,3.742 0.352,9.017c0.031,1.088 0.432,0.984 0.811,1.293c0.795,0.649 1.232,2.4 -0.761,3.651c-1.335,0.838 -3.182,0.407 -4.087,-0.969c-1.129,-1.716 0.524,-2.721 0.675,-3.081c0.081,-0.193 0.141,-0.198 0.111,-6.616Z" style="fill:#fff;"/><path d="M197.172,60.709c0.034,-1.787 0.008,-6.318 0.038,-6.932c0.098,-1.995 1.672,-2.243 2.533,-1.496c0.777,0.675 0.659,0.991 0.669,6.621c0.006,3.375 -0.052,3.515 0.553,3.896c1.545,0.972 0.842,2.796 -0.107,3.509c-2.095,1.574 -4.856,0.039 -4.915,-1.988c-0.03,-1.041 0.679,-1.39 0.809,-1.48c0.467,-0.326 0.449,-0.725 0.42,-2.13Z" style="fill:#fff;"/><path d="M112.395,73.671c1.418,1.637 1.495,1.61 1.494,1.797c-0.001,0.329 -0.524,0.314 -0.576,0.313c-1.923,-0.054 -6.678,0.421 -7.485,0.149c-1.401,-0.471 -2.664,-2.38 -4.558,-4.084c-0.537,-0.483 -0.962,-0.685 -0.988,-0.881c-0.044,-0.333 0.029,-0.371 0.362,-0.393c0.314,-0.02 0.306,0.144 3.933,0.144c4.32,0 4.588,-0.124 6.001,1.16c0.947,0.861 0.933,0.865 1.817,1.793Z" style="fill:#070505;"/><path d="M210.549,155.558c-0.248,0.345 -1.16,1.935 -3.865,1.469c-2.326,-0.401 -4.377,-2.416 -3.972,-3.574c0.259,-0.74 2.328,-2.399 3.615,-1.95c0.435,0.152 4.011,1.984 4.341,2.838c0.235,0.608 -0.083,1.113 -0.119,1.217Z" style="fill:#fff;"/><path d="M194.346,206.141c0.669,0.397 2.424,1.25 2.637,1.353c0.507,0.246 2.793,1.211 3.364,1.398c3.665,1.198 3.663,1.202 3.897,1.266c0.051,0.014 0.508,0.139 0.615,0.242c0.3,0.287 0.052,0.569 0.019,0.605c-0.174,0.197 -0.792,0.299 -4.254,-0.836c-2.126,-0.697 -6.324,-2.389 -8.947,-4.378c-1.009,-0.766 -2.493,-1.731 -2.041,-2.217c0.159,-0.171 0.425,-0.077 0.46,-0.064c0.377,0.133 0.281,0.293 4.249,2.631Z" style="fill:#171615;"/><path d="M198.551,202.544c0.942,0.5 5.113,2.254 7.201,2.796c0.065,0.017 0.695,0.18 0.779,0.321c0.12,0.2 0.082,0.789 -0.757,0.751c-1.538,-0.07 -9.132,-2.847 -13.32,-6.183c-1.123,-0.895 -0.359,-1.095 -0.268,-1.105c0.575,-0.062 0.418,0.376 6.365,3.42Z" style="fill:#151412;"/><path d="M201.876,192.886c0.703,0.393 2.024,1.129 6.88,2.823c0.67,0.234 1.584,0.305 1.552,0.831c-0.006,0.092 -0.198,0.6 -0.908,0.483c-0.998,-0.164 -3.528,-0.967 -5.753,-1.953c-1.852,-0.821 -1.86,-0.797 -3.624,-1.798c-0.921,-0.523 -3.443,-2.21 -3.588,-2.455c-0.248,-0.42 -0.101,-1.165 0.864,-0.537c1.318,0.858 1.68,1.088 4.578,2.606Z" style="fill:#141312;"/><path d="M200.347,197.747c0.413,0.214 3.299,1.505 3.942,1.732c3.772,1.33 3.974,1.174 4.017,1.555c0.068,0.609 -0.652,0.57 -0.725,0.566c-1.502,-0.081 -8.468,-2.56 -12.407,-5.591c-0.086,-0.066 -0.911,-0.701 -0.947,-0.967c-0.011,-0.086 -0.104,-0.899 1.079,-0.139c3.084,1.981 3.655,2.12 5.041,2.844Z" style="fill:#141310;"/><path d="M209.716,190.734c2.008,0.69 2.541,0.646 2.371,1.283c-0.117,0.438 -0.821,0.33 -0.897,0.319c-3.422,-0.524 -11.041,-4.442 -12.536,-6.125c-0.346,-0.39 -0.232,-1.215 0.563,-0.664c1.548,1.072 5.081,2.936 6.001,3.347c2.064,0.919 2.041,0.968 4.498,1.84Z" style="fill:#141213;"/><path d="M205.77,184.793c-1.149,-0.629 -1.178,-0.567 -2.483,-1.393c-2.941,-1.862 -2.982,-2.352 -2.746,-2.607c0.57,-0.614 0.538,0.396 6.363,3.245c3.863,1.89 6.733,2.644 7.04,2.813c0.307,0.17 0.214,0.685 -0.113,0.803c-0.74,0.266 -5.388,-1.448 -8.061,-2.861Z" style="fill:#141313;"/><path d="M232.293,141.015c4.626,0.752 5.334,0.425 6.304,0.414c0.283,-0.003 0.352,0.005 0.358,0.288c0.023,1.085 -3.382,0.764 -5.171,0.567c-0.927,-0.102 -5.1,-0.891 -7.829,-2.373c-0.545,-0.296 -0.305,-0.735 0.295,-0.598c0.678,0.154 1.355,0.787 6.043,1.702Z" style="fill:#222;"/><path d="M234.087,145.825c1.244,0.019 1.24,0.032 1.512,0.008c0.331,-0.03 0.367,-0.141 0.621,0.08c0.076,0.067 0.546,0.613 -0.948,0.842c-0.408,0.062 -3.739,0.066 -6.011,-0.507c-2.96,-0.747 -4.377,-1.504 -4.443,-1.577c-0.202,-0.224 -0.077,-0.557 0.22,-0.577c0.735,-0.048 1.787,1.221 9.048,1.732Z" style="fill:#222;"/><path d="M229.257,150.791c-0.393,-0.058 -3.058,-0.45 -4.8,-1.251c-0.43,-0.198 -0.188,-0.564 -0.021,-0.603c0.517,-0.119 3.472,1.236 8.749,1.123c1.136,-0.024 0.613,0.648 0.333,0.761c-1.011,0.408 -3.568,0.049 -4.261,-0.031Z" style="fill:#262626;"/></g></svg>